<svg width="705" height="109" viewBox="0 0 705 109" fill="none" xmlns="http://www.w3.org/2000/svg">
<path d="M27.241 8.27287C30.9553 8.27287 34.4264 9.04669 37.6544 10.5943C40.9265 12.0977 43.7122 14.1318 46.0116 16.6964C46.2769 17.0502 46.5201 17.4039 46.7412 17.7577C46.9623 18.1114 47.0728 18.5978 47.0728 19.2169C47.0728 20.4107 46.7191 21.3614 46.0116 22.0689C45.3041 22.7322 44.3755 23.0638 43.2259 23.0638C42.3857 23.0638 41.7667 22.9312 41.3687 22.6659C40.9707 22.3563 40.6612 22.0689 40.4401 21.8036C38.7598 19.9465 36.7921 18.5094 34.537 17.4923C32.3261 16.4311 29.8941 15.9005 27.241 15.9005C24.7648 15.9005 22.4433 16.3648 20.2767 17.2934C18.1542 18.2219 16.297 19.5043 14.7052 21.1403C13.1133 22.7322 11.8531 24.6115 10.9245 26.7782C10.0402 28.9006 9.59798 31.1779 9.59798 33.6098C9.59798 36.0418 10.0402 38.3191 10.9245 40.4415C11.8531 42.564 13.1133 44.4212 14.7052 46.013C16.297 47.6049 18.1542 48.8651 20.2767 49.7937C22.4433 50.7223 24.7648 51.1865 27.241 51.1865C29.8941 51.1865 32.304 50.7223 34.4707 49.7937C36.6816 48.8209 38.6272 47.4059 40.3075 45.5487C40.6612 45.1066 41.0592 44.7528 41.5013 44.4875C41.9877 44.178 42.5405 44.0232 43.1595 44.0232C44.3092 44.0232 45.2378 44.3548 45.9453 45.0181C46.697 45.6814 47.0728 46.5436 47.0728 47.6049C47.0728 48.7988 46.6749 49.8379 45.8789 50.7223C43.5354 53.2427 40.7717 55.2325 37.588 56.6917C34.4486 58.1067 30.9995 58.8142 27.241 58.8142C23.7478 58.8142 20.4535 58.173 17.3583 56.8907C14.3072 55.5641 11.632 53.7733 9.33268 51.5182C7.07755 49.2188 5.28672 46.5436 3.96018 43.4926C2.63363 40.4415 1.97036 37.1473 1.97036 33.6098C1.97036 30.1166 2.63363 26.8445 3.96018 23.7934C5.28672 20.6982 7.07755 18.0009 9.33268 15.7015C11.632 13.4022 14.3072 11.5892 17.3583 10.2627C20.4535 8.93615 23.7478 8.27287 27.241 8.27287ZM86.3639 54.2376C86.3639 55.4315 86.0101 56.3822 85.3027 57.0897C84.6394 57.7529 83.7108 58.0846 82.5169 58.0846C81.4557 58.0846 80.5492 57.7529 79.7975 57.0897C79.09 56.3822 78.7363 55.4315 78.7363 54.2376V54.0386C78.1172 54.6577 77.3876 55.2767 76.5475 55.8958C75.7515 56.4706 74.8451 56.9791 73.8281 57.4213C72.8553 57.8635 71.8161 58.2172 70.7107 58.4825C69.6052 58.7478 68.4998 58.8805 67.3943 58.8805C64.5644 58.8805 61.9555 58.372 59.5677 57.355C57.1799 56.338 55.1238 54.9672 53.3993 53.2427C51.6748 51.474 50.3261 49.4178 49.3533 47.0743C48.3805 44.6865 47.8941 42.1439 47.8941 39.4466C47.8941 36.7493 48.3805 34.2289 49.3533 31.8853C50.3261 29.4976 51.6748 27.4193 53.3993 25.6506C55.168 23.8819 57.2463 22.489 59.634 21.472C62.0218 20.4107 64.6086 19.8801 67.3943 19.8801C69.8705 19.8801 72.0593 20.3002 73.9607 21.1403C75.8621 21.9805 77.4539 23.108 78.7363 24.523C78.7363 23.3734 79.09 22.4669 79.7975 21.8036C80.5492 21.0961 81.4557 20.7424 82.5169 20.7424C83.7108 20.7424 84.6394 21.0961 85.3027 21.8036C86.0101 22.4669 86.3639 23.3734 86.3639 24.523V54.2376ZM67.3943 27.5077C65.714 27.5077 64.1443 27.8173 62.6851 28.4363C61.2701 29.0554 60.032 29.9176 58.9708 31.0231C57.9095 32.0843 57.0694 33.3445 56.4503 34.8037C55.8313 36.2629 55.5218 37.8106 55.5218 39.4466C55.5218 41.0827 55.8313 42.6303 56.4503 44.0895C57.0694 45.5045 57.9095 46.7426 58.9708 47.8039C60.032 48.8651 61.2701 49.7052 62.6851 50.3243C64.1443 50.9433 65.714 51.2529 67.3943 51.2529C68.9862 51.2529 70.4675 50.9433 71.8382 50.3243C73.2532 49.7052 74.4471 48.8651 75.4199 47.8039C76.4369 46.7426 77.2329 45.5045 77.8077 44.0895C78.3825 42.6303 78.6699 41.0827 78.6699 39.4466C78.6699 37.8106 78.3825 36.2629 77.8077 34.8037C77.2329 33.3445 76.4369 32.0843 75.4199 31.0231C74.4471 29.9176 73.2532 29.0554 71.8382 28.4363C70.4675 27.8173 68.9862 27.5077 67.3943 27.5077ZM96.527 20.7424C97.6324 20.7424 98.4505 21.0961 98.9811 21.8036C99.5117 22.4669 99.8212 23.3955 99.9097 24.5894C101.192 23.1744 102.585 22.1574 104.088 21.5383C105.592 20.9193 107.338 20.6097 109.328 20.6097C110.434 20.6097 111.34 20.9193 112.048 21.5383C112.799 22.1131 113.175 23.0638 113.175 24.3904C113.175 25.4516 112.91 26.3139 112.379 26.9771C111.849 27.5962 111.008 27.9499 109.859 28.0384C107.957 28.171 106.388 28.4584 105.15 28.9006C103.911 29.3428 102.939 29.9619 102.231 30.7578C101.524 31.5095 101.037 32.4381 100.772 33.5435C100.507 34.6048 100.374 35.7986 100.374 37.1252V54.5692C100.374 55.542 100.02 56.3822 99.3127 57.0897C98.6494 57.7529 97.743 58.0846 96.5933 58.0846C95.4436 58.0846 94.515 57.7529 93.8076 57.0897C93.1001 56.3822 92.7463 55.5199 92.7463 54.5029V24.921C92.7463 23.7713 93.0116 22.7985 93.5423 22.0026C94.1171 21.1625 95.112 20.7424 96.527 20.7424ZM124.34 15.1709C124.34 16.3206 123.986 17.2491 123.279 17.9566C122.615 18.6199 121.687 18.9515 120.493 18.9515C119.432 18.9515 118.525 18.6199 117.773 17.9566C117.066 17.2491 116.712 16.3206 116.712 15.1709V9.86472C116.712 8.71506 117.066 7.80859 117.773 7.14531C118.525 6.43782 119.432 6.08408 120.493 6.08408C121.687 6.08408 122.615 6.43782 123.279 7.14531C123.986 7.80859 124.34 8.71506 124.34 9.86472V15.1709ZM124.34 54.2376C124.34 55.4315 123.986 56.3822 123.279 57.0897C122.615 57.7529 121.687 58.0846 120.493 58.0846C119.432 58.0846 118.525 57.7529 117.773 57.0897C117.066 56.3822 116.712 55.4315 116.712 54.2376V25.8496C116.712 24.7441 117.066 23.8376 117.773 23.1302C118.525 22.4227 119.432 22.0689 120.493 22.0689C121.687 22.0689 122.615 22.4227 123.279 23.1302C123.986 23.8376 124.34 24.7441 124.34 25.8496V54.2376ZM134.083 20.7424C136.249 20.7424 137.532 21.8478 137.93 24.0587C139.079 22.7764 140.494 21.7594 142.175 21.0077C143.855 20.256 145.734 19.8801 147.812 19.8801C150.2 19.8801 152.367 20.3223 154.312 21.2067C156.258 22.0468 157.916 23.2186 159.287 24.722C160.658 26.2254 161.697 28.0163 162.404 30.0945C163.156 32.1285 163.532 34.3394 163.532 36.7272V54.3039C163.532 55.4978 163.178 56.4264 162.471 57.0897C161.807 57.7529 160.901 58.0846 159.751 58.0846C158.646 58.0846 157.739 57.7529 157.032 57.0897C156.324 56.4264 155.971 55.4978 155.971 54.3039V36.7272C155.971 35.4449 155.772 34.251 155.374 33.1456C154.976 31.9959 154.401 31.001 153.649 30.1608C152.942 29.3207 152.057 28.6574 150.996 28.171C149.935 27.6846 148.741 27.4414 147.414 27.4414C146.088 27.4414 144.872 27.6846 143.766 28.171C142.661 28.6574 141.71 29.3207 140.914 30.1608C140.118 30.9568 139.499 31.9296 139.057 33.0792C138.659 34.1847 138.46 35.4007 138.46 36.7272V54.3039C138.46 55.4978 138.106 56.4264 137.399 57.0897C136.736 57.7529 135.807 58.0846 134.613 58.0846C133.552 58.0846 132.646 57.7529 131.894 57.0897C131.186 56.4264 130.833 55.4978 130.833 54.3039V24.0587C130.833 23.0417 131.142 22.2458 131.761 21.671C132.424 21.0519 133.198 20.7424 134.083 20.7424ZM207.23 54.2376C207.23 55.4315 206.876 56.3822 206.168 57.0897C205.505 57.7529 204.576 58.0846 203.383 58.0846C202.321 58.0846 201.415 57.7529 200.663 57.0897C199.956 56.3822 199.602 55.4315 199.602 54.2376V54.0386C198.983 54.6577 198.253 55.2767 197.413 55.8958C196.617 56.4706 195.711 56.9791 194.694 57.4213C193.721 57.8635 192.682 58.2172 191.576 58.4825C190.471 58.7478 189.365 58.8805 188.26 58.8805C185.43 58.8805 182.821 58.372 180.433 57.355C178.046 56.338 175.989 54.9672 174.265 53.2427C172.54 51.474 171.192 49.4178 170.219 47.0743C169.246 44.6865 168.76 42.1439 168.76 39.4466C168.76 36.7493 169.246 34.2289 170.219 31.8853C171.192 29.4976 172.54 27.4193 174.265 25.6506C176.034 23.8819 178.112 22.489 180.5 21.472C182.888 20.4107 185.474 19.8801 188.26 19.8801C190.736 19.8801 192.925 20.3002 194.826 21.1403C196.728 21.9805 198.32 23.108 199.602 24.523C199.602 23.3734 199.956 22.4669 200.663 21.8036C201.415 21.0961 202.321 20.7424 203.383 20.7424C204.576 20.7424 205.505 21.0961 206.168 21.8036C206.876 22.4669 207.23 23.3734 207.23 24.523V54.2376ZM188.26 27.5077C186.58 27.5077 185.01 27.8173 183.551 28.4363C182.136 29.0554 180.898 29.9176 179.836 31.0231C178.775 32.0843 177.935 33.3445 177.316 34.8037C176.697 36.2629 176.387 37.8106 176.387 39.4466C176.387 41.0827 176.697 42.6303 177.316 44.0895C177.935 45.5045 178.775 46.7426 179.836 47.8039C180.898 48.8651 182.136 49.7052 183.551 50.3243C185.01 50.9433 186.58 51.2529 188.26 51.2529C189.852 51.2529 191.333 50.9433 192.704 50.3243C194.119 49.7052 195.313 48.8651 196.286 47.8039C197.303 46.7426 198.099 45.5045 198.673 44.0895C199.248 42.6303 199.536 41.0827 199.536 39.4466C199.536 37.8106 199.248 36.2629 198.673 34.8037C198.099 33.3445 197.303 32.0843 196.286 31.0231C195.313 29.9176 194.119 29.0554 192.704 28.4363C191.333 27.8173 189.852 27.5077 188.26 27.5077ZM497.433 9.46676C499.732 9.46676 501.899 9.84262 503.933 10.5943C506.011 11.346 507.802 12.4294 509.305 13.8444C510.809 15.2151 512.002 16.8954 512.887 18.8852C513.771 20.875 514.213 23.108 514.213 25.5843C514.213 28.0605 513.771 30.2935 512.887 32.2833C512.002 34.2289 510.809 35.9092 509.305 37.3242C507.802 38.6949 506.011 39.7562 503.933 40.5079C501.899 41.2596 499.732 41.6354 497.433 41.6354H491.795V54.2376C491.795 55.4315 491.441 56.3822 490.734 57.0897C490.07 57.7529 489.142 58.0846 487.948 58.0846C486.887 58.0846 485.98 57.7529 485.228 57.0897C484.521 56.3822 484.167 55.4315 484.167 54.2376V13.2474C484.167 12.0977 484.521 11.1913 485.228 10.528C485.98 9.82051 486.887 9.46676 487.948 9.46676H497.433ZM491.795 34.0078H497.433C498.671 34.0078 499.843 33.8309 500.948 33.4772C502.098 33.0792 503.07 32.5265 503.866 31.819C504.707 31.0673 505.37 30.1829 505.856 29.1659C506.343 28.1047 506.586 26.9108 506.586 25.5843C506.586 24.2577 506.343 23.0859 505.856 22.0689C505.37 21.0077 504.707 20.1233 503.866 19.4158C503.07 18.6641 502.098 18.0893 500.948 17.6913C499.843 17.2934 498.671 17.0944 497.433 17.0944H491.795V34.0078ZM539.74 23.3291C540.314 21.6046 541.508 20.7424 543.321 20.7424C544.294 20.7424 545.178 21.0961 545.974 21.8036C546.77 22.5111 547.168 23.4397 547.168 24.5894C547.168 25.12 547.08 25.6506 546.903 26.1812L536.092 55.4315C535.782 56.2716 535.296 56.9349 534.632 57.4213C534.013 57.8635 533.328 58.0846 532.576 58.0846C531.824 58.0846 531.117 57.8635 530.454 57.4213C529.835 56.9791 529.348 56.3158 528.995 55.4315L518.183 26.3139C517.918 25.739 517.785 25.1642 517.785 24.5894C517.785 23.4397 518.183 22.5111 518.979 21.8036C519.819 21.0961 520.726 20.7424 521.699 20.7424C522.671 20.7424 523.423 20.9635 523.954 21.4056C524.484 21.8036 524.926 22.4448 525.28 23.3291L532.576 43.5589L539.74 23.3291ZM559.879 21.074H562.266C563.416 21.074 564.322 21.4278 564.986 22.1353C565.693 22.7985 566.047 23.7271 566.047 24.921C566.047 25.9822 565.693 26.8887 564.986 27.6404C564.322 28.3479 563.416 28.7016 562.266 28.7016H559.879V46.3447C559.879 47.229 559.989 47.9365 560.21 48.4671C560.476 48.9977 560.829 49.4178 561.271 49.7273C561.714 50.0369 562.2 50.258 562.731 50.3906C563.261 50.5233 563.836 50.6117 564.455 50.6559C565.472 50.7444 566.246 51.1423 566.777 51.8498C567.351 52.5131 567.639 53.4196 567.639 54.5692C567.639 55.6305 567.263 56.4927 566.511 57.156C565.76 57.775 564.654 58.0846 563.195 58.0846C561.647 58.0846 560.21 57.8635 558.884 57.4213C557.557 56.9791 556.385 56.2937 555.368 55.3652C554.396 54.3924 553.622 53.1764 553.047 51.7172C552.516 50.2137 552.251 48.445 552.251 46.411V28.7016C551.234 28.569 550.438 28.1489 549.863 27.4414C549.333 26.7339 549.067 25.8938 549.067 24.921C549.067 23.8598 549.333 22.9975 549.863 22.3342C550.438 21.6267 551.234 21.2288 552.251 21.1403V9.93105C552.251 8.73717 552.605 7.80859 553.312 7.14531C554.064 6.43782 554.97 6.08408 556.032 6.08408C557.225 6.08408 558.154 6.43782 558.817 7.14531C559.525 7.80859 559.879 8.73717 559.879 9.93105V21.074ZM579.303 54.2376C579.303 55.4315 578.949 56.3822 578.241 57.0897C577.578 57.7529 576.65 58.0846 575.456 58.0846C574.394 58.0846 573.488 57.7529 572.736 57.0897C572.029 56.3822 571.675 55.4315 571.675 54.2376V49.86C571.675 48.7545 572.029 47.8481 572.736 47.1406C573.488 46.4331 574.394 46.0794 575.456 46.0794C576.65 46.0794 577.578 46.4331 578.241 47.1406C578.949 47.8481 579.303 48.7545 579.303 49.86V54.2376ZM608.968 50.1253H624.356C625.506 50.1253 626.412 50.4791 627.076 51.1865C627.783 51.8498 628.137 52.7563 628.137 53.906C628.137 55.0998 627.783 56.0505 627.076 56.758C626.412 57.4213 625.506 57.7529 624.356 57.7529H605.188C603.95 57.7529 602.999 57.4213 602.336 56.758C601.672 56.0505 601.341 55.0998 601.341 53.906V12.9158C601.341 11.7661 601.695 10.8596 602.402 10.1964C603.154 9.48887 604.06 9.13513 605.121 9.13513C606.315 9.13513 607.244 9.48887 607.907 10.1964C608.615 10.8596 608.968 11.7661 608.968 12.9158V50.1253ZM637.994 21.074H640.382C641.532 21.074 642.438 21.4278 643.102 22.1353C643.809 22.7985 644.163 23.7271 644.163 24.921C644.163 25.9822 643.809 26.8887 643.102 27.6404C642.438 28.3479 641.532 28.7016 640.382 28.7016H637.994V46.3447C637.994 47.229 638.105 47.9365 638.326 48.4671C638.591 48.9977 638.945 49.4178 639.387 49.7273C639.829 50.0369 640.316 50.258 640.846 50.3906C641.377 50.5233 641.952 50.6117 642.571 50.6559C643.588 50.7444 644.362 51.1423 644.892 51.8498C645.467 52.5131 645.755 53.4196 645.755 54.5692C645.755 55.6305 645.379 56.4927 644.627 57.156C643.875 57.775 642.77 58.0846 641.311 58.0846C639.763 58.0846 638.326 57.8635 636.999 57.4213C635.673 56.9791 634.501 56.2937 633.484 55.3652C632.511 54.3924 631.737 53.1764 631.163 51.7172C630.632 50.2137 630.367 48.445 630.367 46.411V28.7016C629.35 28.569 628.554 28.1489 627.979 27.4414C627.448 26.7339 627.183 25.8938 627.183 24.921C627.183 23.8598 627.448 22.9975 627.979 22.3342C628.554 21.6267 629.35 21.2288 630.367 21.1403V9.93105C630.367 8.73717 630.72 7.80859 631.428 7.14531C632.18 6.43782 633.086 6.08408 634.147 6.08408C635.341 6.08408 636.27 6.43782 636.933 7.14531C637.641 7.80859 637.994 8.73717 637.994 9.93105V21.074ZM665.505 27.5077C663.824 27.5077 662.255 27.8173 660.795 28.4363C659.38 29.0554 658.142 29.9176 657.081 31.0231C656.02 32.0843 655.18 33.3445 654.561 34.8037C653.942 36.2629 653.632 37.8106 653.632 39.4466C653.632 41.0827 653.942 42.6303 654.561 44.0895C655.18 45.5045 656.02 46.7426 657.081 47.8039C658.142 48.8651 659.38 49.7052 660.795 50.3243C662.255 50.9433 663.824 51.2529 665.505 51.2529C667.096 51.2529 668.578 50.9433 669.949 50.3243C671.364 49.7052 672.557 48.8651 673.53 47.8039C674.547 46.7426 675.343 45.5045 675.918 44.0895C676.493 42.6303 676.78 41.0827 676.78 39.4466C676.78 37.8106 676.493 36.2629 675.918 34.8037C675.343 33.3445 674.547 32.0843 673.53 31.0231C672.557 29.9176 671.364 29.0554 669.949 28.4363C668.578 27.8173 667.096 27.5077 665.505 27.5077ZM676.78 9.86472C676.78 8.71506 677.112 7.80859 677.775 7.14531C678.483 6.43782 679.433 6.08408 680.627 6.08408C681.777 6.08408 682.705 6.43782 683.413 7.14531C684.12 7.80859 684.474 8.71506 684.474 9.86472V54.7019C684.474 55.7189 684.165 56.5369 683.546 57.156C682.971 57.775 682.219 58.0846 681.29 58.0846C680.185 58.0846 679.234 57.7529 678.438 57.0897C677.687 56.4264 677.222 55.3209 677.046 53.7733C676.471 54.4366 675.763 55.0777 674.923 55.6968C674.083 56.3158 673.154 56.8686 672.137 57.355C671.12 57.7971 670.037 58.1509 668.887 58.4162C667.782 58.7257 666.654 58.8805 665.505 58.8805C662.984 58.8805 660.53 58.372 658.142 57.355C655.799 56.338 653.72 54.9672 651.908 53.2427C650.139 51.474 648.702 49.4178 647.596 47.0743C646.535 44.6865 646.004 42.1439 646.004 39.4466C646.004 36.7493 646.535 34.2289 647.596 31.8853C648.702 29.4976 650.139 27.4193 651.908 25.6506C653.72 23.8819 655.799 22.489 658.142 21.472C660.53 20.4107 662.984 19.8801 665.505 19.8801C668.025 19.8801 670.236 20.3223 672.137 21.2067C674.039 22.0468 675.586 23.1965 676.78 24.6557V9.86472ZM698.484 54.2376C698.484 55.4315 698.13 56.3822 697.423 57.0897C696.76 57.7529 695.831 58.0846 694.637 58.0846C693.576 58.0846 692.669 57.7529 691.918 57.0897C691.21 56.3822 690.857 55.4315 690.857 54.2376V49.86C690.857 48.7545 691.21 47.8481 691.918 47.1406C692.669 46.4331 693.576 46.0794 694.637 46.0794C695.831 46.0794 696.76 46.4331 697.423 47.1406C698.13 47.8481 698.484 48.7545 698.484 49.86V54.2376Z" fill="black"/>
<path d="M242.423 8.40553C244.059 8.40553 245.783 8.78138 247.596 9.53309C249.409 10.2848 250.891 11.2134 252.04 12.3188C252.659 12.8937 253.057 13.4464 253.234 13.977C253.455 14.4634 253.566 14.994 253.566 15.5689C253.566 16.7185 253.256 17.6471 252.637 18.3546C252.018 19.0621 251.178 19.4158 250.117 19.4158C249.409 19.4158 248.812 19.3053 248.326 19.0842C247.84 18.8189 247.353 18.4651 246.867 18.023C246.071 17.2713 245.297 16.7627 244.545 16.4974C243.794 16.1879 242.909 16.0332 241.892 16.0332C240.566 16.0332 239.35 16.5417 238.244 17.5587C237.183 18.5757 236.652 19.9907 236.652 21.8036C236.652 23.1302 237.006 24.1914 237.714 24.9873C238.421 25.739 239.527 26.4907 241.03 27.2424C242.533 27.9941 244.125 28.6574 245.806 29.2323C247.53 29.8071 248.967 30.5146 250.117 31.3547C251.886 32.6813 253.234 34.3394 254.163 36.3293C255.136 38.3191 255.622 40.4637 255.622 42.763C255.622 44.7528 255.268 46.6763 254.561 48.5335C253.897 50.3906 252.88 52.0267 251.51 53.4417C250.183 54.8566 248.525 55.9842 246.535 56.8243C244.59 57.6645 242.357 58.0846 239.836 58.0846C237.537 58.0846 235.459 57.6203 233.601 56.6917C231.788 55.7631 230.307 54.724 229.157 53.5743C228.671 53.0879 228.295 52.5573 228.03 51.9825C227.809 51.4076 227.698 50.877 227.698 50.3906C227.698 49.2409 228.03 48.3345 228.693 47.6712C229.356 47.0079 230.263 46.6763 231.413 46.6763C231.855 46.6763 232.319 46.7868 232.805 47.0079C233.292 47.1848 233.778 47.5164 234.265 48.0028C235.149 48.8872 236.078 49.5284 237.05 49.9263C238.023 50.2801 239.217 50.4569 240.632 50.4569C242.976 50.4569 244.789 49.7495 246.071 48.3345C247.353 46.8753 247.994 45.0181 247.994 42.763C247.994 41.348 247.707 40.1762 247.132 39.2477C246.557 38.2749 245.518 37.4126 244.015 36.6609C242.732 35.9976 241.251 35.3786 239.571 34.8037C237.891 34.1847 236.254 33.4109 234.663 32.4823C233.115 31.5537 231.788 30.1829 230.683 28.37C229.577 26.5128 229.025 24.324 229.025 21.8036C229.025 19.9022 229.356 18.1335 230.02 16.4974C230.683 14.8614 231.612 13.4464 232.805 12.2525C233.999 11.0586 235.414 10.13 237.05 9.46676C238.686 8.75927 240.477 8.40553 242.423 8.40553ZM278.359 27.5077C276.678 27.5077 275.109 27.8173 273.649 28.4363C272.234 29.0554 270.996 29.9176 269.935 31.0231C268.874 32.0843 268.034 33.3445 267.415 34.8037C266.796 36.2629 266.486 37.8106 266.486 39.4466C266.486 41.0827 266.796 42.6303 267.415 44.0895C268.034 45.5045 268.874 46.7426 269.935 47.8039C270.996 48.8651 272.234 49.7052 273.649 50.3243C275.109 50.9433 276.678 51.2529 278.359 51.2529C279.995 51.2529 281.52 50.9433 282.935 50.3243C284.394 49.7052 285.655 48.8651 286.716 47.8039C287.821 46.7426 288.684 45.5045 289.303 44.0895C289.922 42.6303 290.231 41.0827 290.231 39.4466C290.231 37.8106 289.922 36.2629 289.303 34.8037C288.684 33.3445 287.821 32.0843 286.716 31.0231C285.655 29.9176 284.394 29.0554 282.935 28.4363C281.52 27.8173 279.995 27.5077 278.359 27.5077ZM278.359 19.8801C281.056 19.8801 283.576 20.4107 285.92 21.472C288.308 22.489 290.386 23.8819 292.155 25.6506C293.923 27.4193 295.316 29.4976 296.333 31.8853C297.35 34.2289 297.859 36.7493 297.859 39.4466C297.859 42.1439 297.35 44.6865 296.333 47.0743C295.316 49.4178 293.923 51.474 292.155 53.2427C290.386 54.9672 288.308 56.338 285.92 57.355C283.576 58.372 281.056 58.8805 278.359 58.8805C275.661 58.8805 273.119 58.372 270.731 57.355C268.388 56.338 266.331 54.9672 264.563 53.2427C262.794 51.474 261.401 49.4178 260.384 47.0743C259.367 44.6865 258.859 42.1439 258.859 39.4466C258.859 36.7493 259.367 34.2289 260.384 31.8853C261.401 29.4976 262.794 27.4193 264.563 25.6506C266.331 23.8819 268.388 22.489 270.731 21.472C273.119 20.4107 275.661 19.8801 278.359 19.8801ZM310.957 28.7016V54.2376C310.957 55.4315 310.604 56.3822 309.896 57.0897C309.233 57.7529 308.304 58.0846 307.11 58.0846C306.049 58.0846 305.143 57.7529 304.391 57.0897C303.684 56.3822 303.33 55.4315 303.33 54.2376V28.7016C302.313 28.569 301.517 28.171 300.942 27.5077C300.411 26.8445 300.146 25.9601 300.146 24.8547C300.146 23.8819 300.411 23.0638 300.942 22.4006C301.517 21.6931 302.313 21.273 303.33 21.1403V17.7577C303.33 15.7236 303.595 13.977 304.126 12.5178C304.701 11.0144 305.474 9.7984 306.447 8.86982C307.464 7.89702 308.636 7.18953 309.963 6.74735C311.289 6.30517 312.726 6.08408 314.274 6.08408C315.733 6.08408 316.838 6.41571 317.59 7.07898C318.342 7.69804 318.718 8.53818 318.718 9.59942C318.718 10.7491 318.43 11.6777 317.855 12.3852C317.325 13.0484 316.551 13.4243 315.534 13.5127C314.915 13.5569 314.34 13.6454 313.81 13.778C313.279 13.9107 312.792 14.1318 312.35 14.4413C311.908 14.7508 311.554 15.1709 311.289 15.7015C311.068 16.2321 310.957 16.9396 310.957 17.824V21.074H313.345C314.495 21.074 315.401 21.4499 316.065 22.2016C316.772 22.9091 317.126 23.7934 317.126 24.8547C317.126 26.0486 316.772 26.9992 316.065 27.7067C315.401 28.37 314.495 28.7016 313.345 28.7016H310.957ZM330.584 21.074H332.971C334.121 21.074 335.027 21.4278 335.691 22.1353C336.398 22.7985 336.752 23.7271 336.752 24.921C336.752 25.9822 336.398 26.8887 335.691 27.6404C335.027 28.3479 334.121 28.7016 332.971 28.7016H330.584V46.3447C330.584 47.229 330.694 47.9365 330.915 48.4671C331.18 48.9977 331.534 49.4178 331.976 49.7273C332.419 50.0369 332.905 50.258 333.436 50.3906C333.966 50.5233 334.541 50.6117 335.16 50.6559C336.177 50.7444 336.951 51.1423 337.482 51.8498C338.056 52.5131 338.344 53.4196 338.344 54.5692C338.344 55.6305 337.968 56.4927 337.216 57.156C336.465 57.775 335.359 58.0846 333.9 58.0846C332.352 58.0846 330.915 57.8635 329.589 57.4213C328.262 56.9791 327.09 56.2937 326.073 55.3652C325.1 54.3924 324.327 53.1764 323.752 51.7172C323.221 50.2137 322.956 48.445 322.956 46.411V28.7016C321.939 28.569 321.143 28.1489 320.568 27.4414C320.038 26.7339 319.772 25.8938 319.772 24.921C319.772 23.8598 320.038 22.9975 320.568 22.3342C321.143 21.6267 321.939 21.2288 322.956 21.1403V9.93105C322.956 8.73717 323.31 7.80859 324.017 7.14531C324.769 6.43782 325.675 6.08408 326.737 6.08408C327.93 6.08408 328.859 6.43782 329.522 7.14531C330.23 7.80859 330.584 8.73717 330.584 9.93105V21.074ZM350.008 54.2376C350.008 55.4315 349.654 56.3822 348.946 57.0897C348.283 57.7529 347.354 58.0846 346.161 58.0846C345.099 58.0846 344.193 57.7529 343.441 57.0897C342.734 56.3822 342.38 55.4315 342.38 54.2376V9.86472C342.38 8.71506 342.734 7.80859 343.441 7.14531C344.193 6.43782 345.099 6.08408 346.161 6.08408C347.354 6.08408 348.283 6.43782 348.946 7.14531C349.654 7.80859 350.008 8.71506 350.008 9.86472V54.2376ZM393.71 54.2376C393.71 55.4315 393.356 56.3822 392.649 57.0897C391.985 57.7529 391.057 58.0846 389.863 58.0846C388.802 58.0846 387.895 57.7529 387.144 57.0897C386.436 56.3822 386.082 55.4315 386.082 54.2376V54.0386C385.463 54.6577 384.734 55.2767 383.893 55.8958C383.098 56.4706 382.191 56.9791 381.174 57.4213C380.201 57.8635 379.162 58.2172 378.057 58.4825C376.951 58.7478 375.846 58.8805 374.74 58.8805C371.91 58.8805 369.302 58.372 366.914 57.355C364.526 56.338 362.47 54.9672 360.745 53.2427C359.021 51.474 357.672 49.4178 356.699 47.0743C355.727 44.6865 355.24 42.1439 355.24 39.4466C355.24 36.7493 355.727 34.2289 356.699 31.8853C357.672 29.4976 359.021 27.4193 360.745 25.6506C362.514 23.8819 364.592 22.489 366.98 21.472C369.368 20.4107 371.955 19.8801 374.74 19.8801C377.217 19.8801 379.405 20.3002 381.307 21.1403C383.208 21.9805 384.8 23.108 386.082 24.523C386.082 23.3734 386.436 22.4669 387.144 21.8036C387.895 21.0961 388.802 20.7424 389.863 20.7424C391.057 20.7424 391.985 21.0961 392.649 21.8036C393.356 22.4669 393.71 23.3734 393.71 24.523V54.2376ZM374.74 27.5077C373.06 27.5077 371.49 27.8173 370.031 28.4363C368.616 29.0554 367.378 29.9176 366.317 31.0231C365.256 32.0843 364.415 33.3445 363.796 34.8037C363.177 36.2629 362.868 37.8106 362.868 39.4466C362.868 41.0827 363.177 42.6303 363.796 44.0895C364.415 45.5045 365.256 46.7426 366.317 47.8039C367.378 48.8651 368.616 49.7052 370.031 50.3243C371.49 50.9433 373.06 51.2529 374.74 51.2529C376.332 51.2529 377.814 50.9433 379.184 50.3243C380.599 49.7052 381.793 48.8651 382.766 47.8039C383.783 46.7426 384.579 45.5045 385.154 44.0895C385.729 42.6303 386.016 41.0827 386.016 39.4466C386.016 37.8106 385.729 36.2629 385.154 34.8037C384.579 33.3445 383.783 32.0843 382.766 31.0231C381.793 29.9176 380.599 29.0554 379.184 28.4363C377.814 27.8173 376.332 27.5077 374.74 27.5077ZM407.786 24.6557C408.98 23.1965 410.528 22.0468 412.429 21.2067C414.331 20.3223 416.541 19.8801 419.062 19.8801C421.582 19.8801 424.014 20.3665 426.358 21.3393C428.746 22.3121 430.846 23.6829 432.659 25.4516C434.472 27.1761 435.909 29.2323 436.97 31.62C438.076 34.0078 438.628 36.6167 438.628 39.4466C438.628 42.2324 438.076 44.8191 436.97 47.2069C435.909 49.5947 434.472 51.6508 432.659 53.3753C430.846 55.0998 428.746 56.4485 426.358 57.4213C424.014 58.3941 421.582 58.8805 419.062 58.8805C417.868 58.8805 416.696 58.7257 415.547 58.4162C414.441 58.1509 413.38 57.7971 412.363 57.355C411.39 56.8686 410.484 56.3158 409.643 55.6968C408.803 55.0777 408.096 54.4366 407.521 53.7733C407.388 55.0556 407.035 56.0948 406.46 56.8907C405.929 57.6866 404.89 58.0846 403.342 58.0846C402.414 58.0846 401.64 57.775 401.021 57.156C400.402 56.5369 400.092 55.7189 400.092 54.7019V9.86472C400.092 8.71506 400.446 7.80859 401.154 7.14531C401.905 6.43782 402.834 6.08408 403.939 6.08408C405.133 6.08408 406.062 6.43782 406.725 7.14531C407.433 7.80859 407.786 8.71506 407.786 9.86472V24.6557ZM419.062 27.5077C417.47 27.5077 415.989 27.8173 414.618 28.4363C413.247 29.0554 412.053 29.9176 411.036 31.0231C410.019 32.0843 409.223 33.3445 408.649 34.8037C408.074 36.2629 407.786 37.8106 407.786 39.4466C407.786 41.0827 408.074 42.6303 408.649 44.0895C409.223 45.5045 410.019 46.7426 411.036 47.8039C412.053 48.8651 413.247 49.7052 414.618 50.3243C415.989 50.9433 417.47 51.2529 419.062 51.2529C420.698 51.2529 422.246 50.9433 423.705 50.3243C425.164 49.7052 426.424 48.8651 427.485 47.8039C428.547 46.7426 429.387 45.5045 430.006 44.0895C430.625 42.6303 430.934 41.0827 430.934 39.4466C430.934 37.8106 430.625 36.2629 430.006 34.8037C429.387 33.3445 428.547 32.0843 427.485 31.0231C426.424 29.9176 425.164 29.0554 423.705 28.4363C422.246 27.8173 420.698 27.5077 419.062 27.5077ZM453.965 34.7374C455.645 35.4007 457.06 36.064 458.21 36.7272C459.404 37.3905 460.399 38.098 461.195 38.8497C462.212 39.8667 462.941 41.0385 463.383 42.365C463.826 43.6474 464.047 45.2392 464.047 47.1406C464.047 48.5556 463.781 49.9263 463.251 51.2529C462.72 52.5794 461.946 53.7733 460.929 54.8345C459.957 55.8516 458.763 56.6917 457.348 57.355C455.977 57.974 454.407 58.2835 452.638 58.2835C451.091 58.2835 449.565 58.0403 448.062 57.5539C446.603 57.0233 445.365 56.3601 444.348 55.5641C443.729 55.0777 443.198 54.525 442.756 53.906C442.358 53.2869 442.159 52.5794 442.159 51.7835C442.159 50.8991 442.468 50.0811 443.087 49.3294C443.751 48.5335 444.547 48.1355 445.475 48.1355C446.271 48.1355 447.111 48.4008 447.996 48.9314C448.659 49.3294 449.366 49.661 450.118 49.9263C450.87 50.1916 451.71 50.3243 452.638 50.3243C453.965 50.3243 454.938 49.9927 455.557 49.3294C456.176 48.6219 456.485 47.7596 456.485 46.7426C456.485 45.7698 456.309 45.0402 455.955 44.5538C455.645 44.0232 455.247 43.581 454.761 43.2273C453.744 42.4756 452.616 41.9007 451.378 41.5028C450.184 41.1048 449.013 40.5742 447.863 39.9109C446.315 39.0266 445.099 37.899 444.215 36.5282C443.331 35.1575 442.888 33.3888 442.888 31.2221C442.888 29.6302 443.154 28.1931 443.684 26.9108C444.215 25.5843 444.945 24.4567 445.873 23.5281C446.846 22.5995 447.973 21.8921 449.256 21.4056C450.538 20.875 451.953 20.6097 453.501 20.6097C455.048 20.6097 456.574 20.8971 458.077 21.472C459.581 22.0468 460.73 22.9091 461.526 24.0587C462.057 24.8104 462.322 25.7611 462.322 26.9108C462.322 27.8394 462.035 28.6574 461.46 29.3649C460.929 30.0282 460.089 30.3598 458.94 30.3598C458.497 30.3598 458.011 30.2714 457.48 30.0945C456.994 29.8734 456.618 29.586 456.353 29.2323C455.601 28.2595 454.518 27.7731 453.103 27.7731C452.395 27.7731 451.754 28.0384 451.179 28.569C450.649 29.0996 450.383 29.8734 450.383 30.8904C450.383 31.819 450.582 32.5486 450.98 33.0792C451.422 33.5656 452.417 34.1184 453.965 34.7374Z" fill="#929292"/>
<path d="M132.707 96.3627L136.368 84.8211C136.47 84.4821 136.639 84.2279 136.877 84.0584C137.131 83.872 137.419 83.7788 137.741 83.7788C138.029 83.7788 138.309 83.8551 138.58 84.0076C138.851 84.1601 139.046 84.4228 139.165 84.7957L142.775 96.3627L146.41 84.7957C146.528 84.4398 146.715 84.1856 146.969 84.033C147.24 83.8635 147.52 83.7788 147.808 83.7788C148.198 83.7788 148.545 83.8974 148.85 84.1347C149.155 84.372 149.308 84.7194 149.308 85.177C149.308 85.2618 149.299 85.3465 149.283 85.4312C149.266 85.516 149.24 85.6007 149.206 85.6855L144.198 101.523C144.096 101.862 143.902 102.116 143.613 102.286C143.342 102.455 143.054 102.54 142.749 102.54C142.444 102.54 142.156 102.455 141.885 102.286C141.631 102.116 141.453 101.862 141.351 101.523L137.741 89.9818L134.131 101.523C134.029 101.845 133.843 102.1 133.572 102.286C133.318 102.455 133.021 102.54 132.682 102.54C132.394 102.54 132.114 102.464 131.843 102.311C131.589 102.142 131.402 101.879 131.284 101.523L126.301 85.6092C126.25 85.4905 126.225 85.3465 126.225 85.177C126.225 84.7364 126.386 84.3974 126.708 84.1601C127.03 83.9059 127.36 83.7788 127.699 83.7788C127.97 83.7788 128.233 83.8551 128.487 84.0076C128.759 84.1601 128.953 84.4228 129.072 84.7957L132.707 96.3627ZM164.246 87.8972C165.263 87.8972 166.221 88.0921 167.119 88.4819C168.034 88.8717 168.831 89.3971 169.508 90.058C170.186 90.702 170.72 91.4647 171.11 92.346C171.517 93.2103 171.72 94.1255 171.72 95.0916C171.72 95.5831 171.593 95.9559 171.339 96.2101C171.085 96.4644 170.729 96.5915 170.271 96.5915H159.95C160.035 97.066 160.212 97.5067 160.484 97.9134C160.755 98.3202 161.085 98.6761 161.475 98.9811C161.882 99.2692 162.323 99.498 162.797 99.6675C163.272 99.837 163.755 99.9217 164.246 99.9217C164.873 99.9217 165.449 99.8116 165.975 99.5913C166.5 99.3709 166.966 99.0574 167.373 98.6506C167.542 98.4981 167.729 98.3795 167.932 98.2947C168.136 98.193 168.331 98.1422 168.517 98.1422C168.907 98.1422 169.229 98.2863 169.483 98.5744C169.754 98.8625 169.89 99.2014 169.89 99.5913C169.89 99.7946 169.864 99.9895 169.814 100.176C169.763 100.362 169.661 100.532 169.508 100.684C168.847 101.413 168.068 101.955 167.17 102.311C166.271 102.667 165.297 102.845 164.246 102.845C163.212 102.845 162.238 102.65 161.323 102.261C160.424 101.871 159.636 101.345 158.958 100.684C158.28 100.006 157.747 99.2184 157.357 98.3202C156.967 97.405 156.772 96.4305 156.772 95.3966C156.772 94.3628 156.967 93.3968 157.357 92.4985C157.747 91.5833 158.28 90.7868 158.958 90.1089C159.636 89.4309 160.424 88.8971 161.323 88.5073C162.238 88.1005 163.212 87.8972 164.246 87.8972ZM164.246 90.8207C163.755 90.8207 163.272 90.9054 162.797 91.0749C162.323 91.2444 161.89 91.4817 161.501 91.7867C161.128 92.0918 160.806 92.4477 160.535 92.8544C160.263 93.2612 160.077 93.7018 159.975 94.1764H168.517C168.432 93.7018 168.254 93.2612 167.983 92.8544C167.712 92.4477 167.381 92.0918 166.992 91.7867C166.602 91.4817 166.17 91.2444 165.695 91.0749C165.221 90.9054 164.738 90.8207 164.246 90.8207ZM200.926 83.9059C202.265 83.9059 203.528 84.1347 204.714 84.5923C205.901 85.0499 206.934 85.6855 207.816 86.499C208.697 87.3125 209.392 88.287 209.9 89.4225C210.409 90.558 210.663 91.8037 210.663 93.1595C210.663 94.5153 210.409 95.761 209.9 96.8965C209.392 98.032 208.697 99.0065 207.816 99.82C206.934 100.634 205.901 101.269 204.714 101.727C203.528 102.184 202.265 102.413 200.926 102.413H197.876C197.469 102.413 197.122 102.286 196.833 102.032C196.562 101.761 196.427 101.396 196.427 100.939V85.355C196.427 84.9143 196.562 84.5669 196.833 84.3127C197.122 84.0415 197.469 83.9059 197.876 83.9059H200.926ZM199.35 99.4896H200.926C201.859 99.4896 202.74 99.337 203.57 99.032C204.401 98.71 205.121 98.2693 205.731 97.71C206.358 97.1507 206.85 96.4898 207.206 95.7271C207.562 94.9475 207.739 94.0916 207.739 93.1595C207.739 92.2443 207.562 91.3969 207.206 90.6173C206.85 89.8377 206.358 89.1683 205.731 88.609C205.121 88.0497 204.401 87.6175 203.57 87.3125C202.74 86.9904 201.859 86.8294 200.926 86.8294H199.35V99.4896ZM227.994 87.8972C229.01 87.8972 229.968 88.0921 230.866 88.4819C231.781 88.8717 232.578 89.3971 233.256 90.058C233.934 90.702 234.468 91.4647 234.858 92.346C235.264 93.2103 235.468 94.1255 235.468 95.0916C235.468 95.5831 235.341 95.9559 235.086 96.2101C234.832 96.4644 234.476 96.5915 234.019 96.5915H223.697C223.782 97.066 223.96 97.5067 224.231 97.9134C224.502 98.3202 224.833 98.6761 225.223 98.9811C225.629 99.2692 226.07 99.498 226.545 99.6675C227.019 99.837 227.502 99.9217 227.994 99.9217C228.621 99.9217 229.197 99.8116 229.722 99.5913C230.248 99.3709 230.714 99.0574 231.121 98.6506C231.29 98.4981 231.476 98.3795 231.68 98.2947C231.883 98.193 232.078 98.1422 232.264 98.1422C232.654 98.1422 232.976 98.2863 233.231 98.5744C233.502 98.8625 233.637 99.2014 233.637 99.5913C233.637 99.7946 233.612 99.9895 233.561 100.176C233.51 100.362 233.408 100.532 233.256 100.684C232.595 101.413 231.815 101.955 230.917 102.311C230.019 102.667 229.044 102.845 227.994 102.845C226.96 102.845 225.985 102.65 225.07 102.261C224.172 101.871 223.384 101.345 222.706 100.684C222.028 100.006 221.494 99.2184 221.104 98.3202C220.714 97.405 220.52 96.4305 220.52 95.3966C220.52 94.3628 220.714 93.3968 221.104 92.4985C221.494 91.5833 222.028 90.7868 222.706 90.1089C223.384 89.4309 224.172 88.8971 225.07 88.5073C225.985 88.1005 226.96 87.8972 227.994 87.8972ZM227.994 90.8207C227.502 90.8207 227.019 90.9054 226.545 91.0749C226.07 91.2444 225.638 91.4817 225.248 91.7867C224.875 92.0918 224.553 92.4477 224.282 92.8544C224.011 93.2612 223.824 93.7018 223.723 94.1764H232.264C232.18 93.7018 232.002 93.2612 231.731 92.8544C231.459 92.4477 231.129 92.0918 230.739 91.7867C230.349 91.4817 229.917 91.2444 229.443 91.0749C228.968 90.9054 228.485 90.8207 227.994 90.8207ZM249.767 93.5917C250.411 93.8459 250.953 94.1001 251.394 94.3543C251.852 94.6086 252.233 94.8797 252.538 95.1678C252.928 95.5576 253.208 96.0068 253.377 96.5152C253.546 97.0067 253.631 97.6168 253.631 98.3456C253.631 98.8879 253.53 99.4133 253.326 99.9217C253.123 100.43 252.826 100.888 252.436 101.295C252.064 101.684 251.606 102.006 251.064 102.261C250.538 102.498 249.937 102.616 249.259 102.616C248.665 102.616 248.081 102.523 247.505 102.337C246.945 102.133 246.471 101.879 246.081 101.574C245.844 101.388 245.64 101.176 245.471 100.939C245.318 100.701 245.242 100.43 245.242 100.125C245.242 99.7862 245.361 99.4726 245.598 99.1845C245.852 98.8794 246.157 98.7269 246.513 98.7269C246.818 98.7269 247.14 98.8286 247.479 99.032C247.733 99.1845 248.005 99.3116 248.293 99.4133C248.581 99.515 248.903 99.5658 249.259 99.5658C249.767 99.5658 250.14 99.4387 250.377 99.1845C250.614 98.9133 250.733 98.5828 250.733 98.193C250.733 97.8202 250.665 97.5405 250.53 97.3541C250.411 97.1507 250.259 96.9813 250.072 96.8457C249.682 96.5576 249.25 96.3372 248.776 96.1847C248.318 96.0322 247.869 95.8288 247.428 95.5746C246.835 95.2356 246.369 94.8035 246.03 94.2781C245.691 93.7527 245.522 93.0748 245.522 92.2443C245.522 91.6342 245.623 91.0834 245.827 90.5919C246.03 90.0834 246.31 89.6513 246.666 89.2954C247.038 88.9395 247.471 88.6683 247.962 88.4819C248.454 88.2785 248.996 88.1768 249.589 88.1768C250.182 88.1768 250.767 88.287 251.343 88.5073C251.919 88.7276 252.36 89.0581 252.665 89.4987C252.869 89.7869 252.97 90.1512 252.97 90.5919C252.97 90.9478 252.86 91.2613 252.64 91.5325C252.436 91.7867 252.114 91.9138 251.674 91.9138C251.504 91.9138 251.318 91.8799 251.114 91.8121C250.928 91.7274 250.784 91.6172 250.682 91.4817C250.394 91.1088 249.979 90.9224 249.437 90.9224C249.165 90.9224 248.92 91.0241 248.699 91.2274C248.496 91.4308 248.394 91.7274 248.394 92.1172C248.394 92.4731 248.471 92.7528 248.623 92.9561C248.793 93.1426 249.174 93.3544 249.767 93.5917ZM266.698 86.0922C266.698 86.5328 266.562 86.8888 266.291 87.1599C266.037 87.4141 265.681 87.5413 265.223 87.5413C264.816 87.5413 264.469 87.4141 264.181 87.1599C263.91 86.8888 263.774 86.5328 263.774 86.0922V84.0584C263.774 83.6178 263.91 83.2704 264.181 83.0161C264.469 82.745 264.816 82.6094 265.223 82.6094C265.681 82.6094 266.037 82.745 266.291 83.0161C266.562 83.2704 266.698 83.6178 266.698 84.0584V86.0922ZM266.698 101.066C266.698 101.523 266.562 101.888 266.291 102.159C266.037 102.413 265.681 102.54 265.223 102.54C264.816 102.54 264.469 102.413 264.181 102.159C263.91 101.888 263.774 101.523 263.774 101.066V90.1851C263.774 89.7614 263.91 89.414 264.181 89.1428C264.469 88.8717 264.816 88.7361 265.223 88.7361C265.681 88.7361 266.037 88.8717 266.291 89.1428C266.562 89.414 266.698 89.7614 266.698 90.1851V101.066ZM284.566 87.8972C285.024 87.8972 285.465 87.9565 285.888 88.0751C286.329 88.1768 286.736 88.3209 287.109 88.5073C287.498 88.6937 287.854 88.9056 288.176 89.1428C288.498 89.3801 288.778 89.6259 289.015 89.8801C289.049 89.3208 289.185 88.9056 289.422 88.6344C289.659 88.3632 290.049 88.2276 290.591 88.2276C290.947 88.2276 291.244 88.3463 291.481 88.5836C291.718 88.8039 291.837 89.1089 291.837 89.4987V101.472C291.837 102.405 291.693 103.311 291.405 104.193C291.134 105.091 290.693 105.887 290.083 106.582C289.473 107.294 288.693 107.862 287.744 108.286C286.812 108.709 285.685 108.921 284.363 108.921C283.838 108.921 283.439 108.786 283.168 108.514C282.914 108.26 282.787 107.904 282.787 107.447C282.787 107.006 282.914 106.65 283.168 106.379C283.439 106.108 283.804 105.972 284.261 105.972C285.143 105.972 285.88 105.837 286.473 105.565C287.066 105.311 287.541 104.964 287.897 104.523C288.253 104.082 288.498 103.557 288.634 102.947C288.786 102.354 288.863 101.718 288.863 101.04C288.422 101.617 287.846 102.066 287.134 102.388C286.422 102.693 285.566 102.845 284.566 102.845C283.6 102.845 282.66 102.65 281.745 102.261C280.846 101.871 280.05 101.337 279.355 100.659C278.677 99.9811 278.126 99.193 277.702 98.2947C277.296 97.3795 277.092 96.405 277.092 95.3712C277.092 94.3374 277.296 93.3713 277.702 92.4731C278.126 91.5579 278.677 90.7614 279.355 90.0834C280.05 89.4055 280.846 88.8717 281.745 88.4819C282.66 88.0921 283.6 87.8972 284.566 87.8972ZM284.566 99.9217C285.176 99.9217 285.744 99.8031 286.27 99.5658C286.812 99.3286 287.27 99.0065 287.642 98.5998C288.032 98.1761 288.337 97.6931 288.558 97.1507C288.778 96.5915 288.888 95.9983 288.888 95.3712C288.888 94.7441 288.778 94.1594 288.558 93.6171C288.337 93.0578 288.032 92.5748 287.642 92.168C287.27 91.7443 286.812 91.4139 286.27 91.1766C285.744 90.9393 285.176 90.8207 284.566 90.8207C283.922 90.8207 283.321 90.9393 282.761 91.1766C282.219 91.4139 281.745 91.7443 281.338 92.168C280.931 92.5748 280.609 93.0578 280.372 93.6171C280.134 94.1594 280.016 94.7441 280.016 95.3712C280.016 95.9983 280.134 96.5915 280.372 97.1507C280.609 97.6931 280.931 98.1761 281.338 98.5998C281.745 99.0065 282.219 99.3286 282.761 99.5658C283.321 99.8031 283.922 99.9217 284.566 99.9217ZM303.918 88.2276C304.749 88.2276 305.24 88.6513 305.393 89.4987C305.833 89.0073 306.376 88.6174 307.02 88.3293C307.664 88.0412 308.384 87.8972 309.181 87.8972C310.096 87.8972 310.926 88.0666 311.672 88.4056C312.418 88.7276 313.053 89.1767 313.579 89.753C314.104 90.3292 314.502 91.0156 314.773 91.8121C315.061 92.5917 315.206 93.4391 315.206 94.3543V101.091C315.206 101.549 315.07 101.905 314.799 102.159C314.545 102.413 314.197 102.54 313.757 102.54C313.333 102.54 312.985 102.413 312.714 102.159C312.443 101.905 312.307 101.549 312.307 101.091V94.3543C312.307 93.8628 312.231 93.4052 312.079 92.9815C311.926 92.5409 311.706 92.1596 311.418 91.8376C311.147 91.5155 310.808 91.2613 310.401 91.0749C309.994 90.8885 309.536 90.7953 309.028 90.7953C308.52 90.7953 308.054 90.8885 307.63 91.0749C307.206 91.2613 306.842 91.5155 306.537 91.8376C306.232 92.1426 305.994 92.5155 305.825 92.9561C305.672 93.3798 305.596 93.8459 305.596 94.3543V101.091C305.596 101.549 305.46 101.905 305.189 102.159C304.935 102.413 304.579 102.54 304.122 102.54C303.715 102.54 303.367 102.413 303.079 102.159C302.808 101.905 302.673 101.549 302.673 101.091V89.4987C302.673 89.1089 302.791 88.8039 303.028 88.5836C303.283 88.3463 303.579 88.2276 303.918 88.2276ZM349.149 83.9059C349.572 83.9059 349.911 84.0415 350.166 84.3127C350.437 84.5669 350.572 84.9143 350.572 85.355C350.572 85.7956 350.437 86.1515 350.166 86.4227C349.911 86.6939 349.572 86.8294 349.149 86.8294H343.353V91.1003H348.92C349.361 91.1003 349.717 91.2359 349.988 91.5071C350.259 91.7782 350.394 92.1257 350.394 92.5494C350.394 93.007 350.259 93.3629 349.988 93.6171C349.717 93.8713 349.361 93.9984 348.92 93.9984H343.353V99.4896H349.25C349.691 99.4896 350.039 99.6251 350.293 99.8963C350.564 100.151 350.7 100.498 350.7 100.939C350.7 101.396 350.564 101.761 350.293 102.032C350.039 102.286 349.691 102.413 349.25 102.413H341.878C341.471 102.413 341.124 102.286 340.836 102.032C340.565 101.761 340.429 101.396 340.429 100.939V85.355C340.429 84.9143 340.565 84.5669 340.836 84.3127C341.124 84.0415 341.471 83.9059 341.878 83.9059H349.149ZM368.59 88.2276C368.98 88.2276 369.311 88.3717 369.582 88.6598C369.87 88.931 370.014 89.2699 370.014 89.6767C370.014 89.8292 369.988 89.9902 369.938 90.1597C369.904 90.3292 369.827 90.4987 369.709 90.6682L366.785 95.0153L370.192 100.125C370.31 100.295 370.387 100.456 370.421 100.608C370.471 100.761 370.497 100.93 370.497 101.117C370.497 101.523 370.353 101.862 370.065 102.133C369.794 102.405 369.463 102.54 369.073 102.54C368.751 102.54 368.497 102.481 368.311 102.362C368.124 102.244 367.938 102.04 367.751 101.752L365.082 97.4558L362.464 101.752C362.277 102.04 362.065 102.244 361.828 102.362C361.608 102.481 361.37 102.54 361.116 102.54C360.743 102.54 360.413 102.405 360.125 102.133C359.837 101.862 359.693 101.523 359.693 101.117C359.693 100.812 359.786 100.506 359.972 100.201L363.455 94.9899L360.506 90.6682C360.387 90.4987 360.303 90.3292 360.252 90.1597C360.218 89.9902 360.201 89.8292 360.201 89.6767C360.201 89.2699 360.337 88.931 360.608 88.6598C360.896 88.3717 361.235 88.2276 361.625 88.2276C361.828 88.2276 362.04 88.287 362.26 88.4056C362.497 88.5073 362.701 88.6852 362.87 88.9395L365.107 92.5494L367.345 88.9649C367.514 88.7107 367.709 88.5242 367.929 88.4056C368.15 88.287 368.37 88.2276 368.59 88.2276ZM387.616 99.9217C388.243 99.9217 388.836 99.8031 389.396 99.5658C389.955 99.3286 390.438 99.0065 390.845 98.5998C391.251 98.1761 391.574 97.6931 391.811 97.1507C392.048 96.5915 392.167 95.9983 392.167 95.3712C392.167 94.7441 392.048 94.1594 391.811 93.6171C391.574 93.0578 391.251 92.5748 390.845 92.168C390.438 91.7443 389.955 91.4139 389.396 91.1766C388.836 90.9393 388.243 90.8207 387.616 90.8207C387.006 90.8207 386.438 90.9393 385.913 91.1766C385.387 91.4139 384.93 91.7443 384.54 92.168C384.15 92.5748 383.845 93.0578 383.625 93.6171C383.405 94.1594 383.294 94.7441 383.294 95.3712C383.294 95.9983 383.405 96.5915 383.625 97.1507C383.845 97.6931 384.15 98.1761 384.54 98.5998C384.93 99.0065 385.387 99.3286 385.913 99.5658C386.438 99.8031 387.006 99.9217 387.616 99.9217ZM383.294 107.472C383.294 107.913 383.159 108.26 382.888 108.514C382.633 108.786 382.278 108.921 381.82 108.921C381.396 108.921 381.04 108.786 380.752 108.514C380.481 108.26 380.345 107.913 380.345 107.472V89.4987C380.345 89.1089 380.464 88.8039 380.701 88.5836C380.956 88.3463 381.252 88.2276 381.591 88.2276C382.117 88.2276 382.481 88.3717 382.684 88.6598C382.905 88.931 383.074 89.3377 383.193 89.8801C383.413 89.6259 383.684 89.3801 384.006 89.1428C384.328 88.9056 384.676 88.6937 385.049 88.5073C385.438 88.3209 385.845 88.1768 386.269 88.0751C386.709 87.9565 387.159 87.8972 387.616 87.8972C388.582 87.8972 389.514 88.0921 390.413 88.4819C391.328 88.8717 392.133 89.4055 392.828 90.0834C393.523 90.7614 394.073 91.5579 394.48 92.4731C394.904 93.3713 395.116 94.3374 395.116 95.3712C395.116 96.405 394.904 97.3795 394.48 98.2947C394.073 99.193 393.523 99.9811 392.828 100.659C392.133 101.337 391.328 101.871 390.413 102.261C389.514 102.65 388.582 102.845 387.616 102.845C386.65 102.845 385.803 102.684 385.074 102.362C384.345 102.023 383.752 101.583 383.294 101.04V107.472ZM412.434 87.8972C413.451 87.8972 414.408 88.0921 415.306 88.4819C416.222 88.8717 417.018 89.3971 417.696 90.058C418.374 90.702 418.908 91.4647 419.298 92.346C419.704 93.2103 419.908 94.1255 419.908 95.0916C419.908 95.5831 419.781 95.9559 419.526 96.2101C419.272 96.4644 418.916 96.5915 418.459 96.5915H408.137C408.222 97.066 408.4 97.5067 408.671 97.9134C408.942 98.3202 409.273 98.6761 409.663 98.9811C410.069 99.2692 410.51 99.498 410.985 99.6675C411.459 99.837 411.942 99.9217 412.434 99.9217C413.061 99.9217 413.637 99.8116 414.162 99.5913C414.688 99.3709 415.154 99.0574 415.561 98.6506C415.73 98.4981 415.917 98.3795 416.12 98.2947C416.323 98.193 416.518 98.1422 416.705 98.1422C417.094 98.1422 417.416 98.2863 417.671 98.5744C417.942 98.8625 418.077 99.2014 418.077 99.5913C418.077 99.7946 418.052 99.9895 418.001 100.176C417.95 100.362 417.849 100.532 417.696 100.684C417.035 101.413 416.255 101.955 415.357 102.311C414.459 102.667 413.485 102.845 412.434 102.845C411.4 102.845 410.425 102.65 409.51 102.261C408.612 101.871 407.824 101.345 407.146 100.684C406.468 100.006 405.934 99.2184 405.544 98.3202C405.155 97.405 404.96 96.4305 404.96 95.3966C404.96 94.3628 405.155 93.3968 405.544 92.4985C405.934 91.5833 406.468 90.7868 407.146 90.1089C407.824 89.4309 408.612 88.8971 409.51 88.5073C410.425 88.1005 411.4 87.8972 412.434 87.8972ZM412.434 90.8207C411.942 90.8207 411.459 90.9054 410.985 91.0749C410.51 91.2444 410.078 91.4817 409.688 91.7867C409.315 92.0918 408.993 92.4477 408.722 92.8544C408.451 93.2612 408.265 93.7018 408.163 94.1764H416.705C416.62 93.7018 416.442 93.2612 416.171 92.8544C415.9 92.4477 415.569 92.0918 415.179 91.7867C414.789 91.4817 414.357 91.2444 413.883 91.0749C413.408 90.9054 412.925 90.8207 412.434 90.8207ZM431.716 88.2276C432.14 88.2276 432.453 88.3632 432.656 88.6344C432.86 88.8886 432.978 89.2445 433.012 89.7021C433.504 89.1598 434.038 88.77 434.614 88.5327C435.19 88.2954 435.86 88.1768 436.622 88.1768C437.046 88.1768 437.393 88.2954 437.665 88.5327C437.953 88.753 438.097 89.1174 438.097 89.6259C438.097 90.0326 437.995 90.3631 437.792 90.6173C437.588 90.8546 437.266 90.9902 436.826 91.0241C436.097 91.0749 435.495 91.1851 435.021 91.3545C434.546 91.524 434.173 91.7613 433.902 92.0664C433.631 92.3545 433.445 92.7104 433.343 93.1341C433.241 93.5408 433.19 93.9984 433.19 94.5069V101.193C433.19 101.566 433.055 101.888 432.784 102.159C432.529 102.413 432.182 102.54 431.741 102.54C431.301 102.54 430.945 102.413 430.674 102.159C430.402 101.888 430.267 101.557 430.267 101.167V89.8292C430.267 89.3886 430.369 89.0157 430.572 88.7107C430.792 88.3887 431.174 88.2276 431.716 88.2276ZM450.765 86.0922C450.765 86.5328 450.63 86.8888 450.358 87.1599C450.104 87.4141 449.748 87.5413 449.291 87.5413C448.884 87.5413 448.537 87.4141 448.248 87.1599C447.977 86.8888 447.842 86.5328 447.842 86.0922V84.0584C447.842 83.6178 447.977 83.2704 448.248 83.0161C448.537 82.745 448.884 82.6094 449.291 82.6094C449.748 82.6094 450.104 82.745 450.358 83.0161C450.63 83.2704 450.765 83.6178 450.765 84.0584V86.0922ZM450.765 101.066C450.765 101.523 450.63 101.888 450.358 102.159C450.104 102.413 449.748 102.54 449.291 102.54C448.884 102.54 448.537 102.413 448.248 102.159C447.977 101.888 447.842 101.523 447.842 101.066V90.1851C447.842 89.7614 447.977 89.414 448.248 89.1428C448.537 88.8717 448.884 88.7361 449.291 88.7361C449.748 88.7361 450.104 88.8717 450.358 89.1428C450.63 89.414 450.765 89.7614 450.765 90.1851V101.066ZM468.634 87.8972C469.651 87.8972 470.609 88.0921 471.507 88.4819C472.422 88.8717 473.218 89.3971 473.896 90.058C474.574 90.702 475.108 91.4647 475.498 92.346C475.905 93.2103 476.108 94.1255 476.108 95.0916C476.108 95.5831 475.981 95.9559 475.727 96.2101C475.473 96.4644 475.117 96.5915 474.659 96.5915H464.338C464.423 97.066 464.6 97.5067 464.872 97.9134C465.143 98.3202 465.473 98.6761 465.863 98.9811C466.27 99.2692 466.71 99.498 467.185 99.6675C467.66 99.837 468.143 99.9217 468.634 99.9217C469.261 99.9217 469.837 99.8116 470.363 99.5913C470.888 99.3709 471.354 99.0574 471.761 98.6506C471.93 98.4981 472.117 98.3795 472.32 98.2947C472.524 98.193 472.719 98.1422 472.905 98.1422C473.295 98.1422 473.617 98.2863 473.871 98.5744C474.142 98.8625 474.278 99.2014 474.278 99.5913C474.278 99.7946 474.252 99.9895 474.201 100.176C474.151 100.362 474.049 100.532 473.896 100.684C473.235 101.413 472.456 101.955 471.558 102.311C470.659 102.667 469.685 102.845 468.634 102.845C467.6 102.845 466.626 102.65 465.711 102.261C464.812 101.871 464.024 101.345 463.346 100.684C462.668 100.006 462.135 99.2184 461.745 98.3202C461.355 97.405 461.16 96.4305 461.16 95.3966C461.16 94.3628 461.355 93.3968 461.745 92.4985C462.135 91.5833 462.668 90.7868 463.346 90.1089C464.024 89.4309 464.812 88.8971 465.711 88.5073C466.626 88.1005 467.6 87.8972 468.634 87.8972ZM468.634 90.8207C468.143 90.8207 467.66 90.9054 467.185 91.0749C466.71 91.2444 466.278 91.4817 465.889 91.7867C465.516 92.0918 465.194 92.4477 464.922 92.8544C464.651 93.2612 464.465 93.7018 464.363 94.1764H472.905C472.82 93.7018 472.642 93.2612 472.371 92.8544C472.1 92.4477 471.769 92.0918 471.38 91.7867C470.99 91.4817 470.558 91.2444 470.083 91.0749C469.609 90.9054 469.126 90.8207 468.634 90.8207ZM487.713 88.2276C488.543 88.2276 489.035 88.6513 489.187 89.4987C489.628 89.0073 490.17 88.6174 490.814 88.3293C491.458 88.0412 492.179 87.8972 492.975 87.8972C493.89 87.8972 494.721 88.0666 495.467 88.4056C496.212 88.7276 496.848 89.1767 497.373 89.753C497.899 90.3292 498.297 91.0156 498.568 91.8121C498.856 92.5917 499 93.4391 499 94.3543V101.091C499 101.549 498.865 101.905 498.593 102.159C498.339 102.413 497.992 102.54 497.551 102.54C497.127 102.54 496.78 102.413 496.509 102.159C496.238 101.905 496.102 101.549 496.102 101.091V94.3543C496.102 93.8628 496.026 93.4052 495.873 92.9815C495.721 92.5409 495.5 92.1596 495.212 91.8376C494.941 91.5155 494.602 91.2613 494.195 91.0749C493.789 90.8885 493.331 90.7953 492.823 90.7953C492.314 90.7953 491.848 90.8885 491.424 91.0749C491.001 91.2613 490.636 91.5155 490.331 91.8376C490.026 92.1426 489.789 92.5155 489.619 92.9561C489.467 93.3798 489.391 93.8459 489.391 94.3543V101.091C489.391 101.549 489.255 101.905 488.984 102.159C488.73 102.413 488.374 102.54 487.916 102.54C487.509 102.54 487.162 102.413 486.874 102.159C486.603 101.905 486.467 101.549 486.467 101.091V89.4987C486.467 89.1089 486.586 88.8039 486.823 88.5836C487.077 88.3463 487.374 88.2276 487.713 88.2276ZM516.867 87.8972C517.935 87.8972 518.943 88.1005 519.892 88.5073C520.858 88.8971 521.655 89.4733 522.282 90.236C522.401 90.3885 522.485 90.5495 522.536 90.719C522.587 90.8885 522.613 91.041 522.613 91.1766C522.613 91.5833 522.46 91.9392 522.155 92.2443C521.85 92.5494 521.502 92.7019 521.113 92.7019C520.757 92.7019 520.435 92.5578 520.147 92.2697C519.706 91.8291 519.206 91.4817 518.647 91.2274C518.087 90.9563 517.494 90.8207 516.867 90.8207C516.223 90.8207 515.622 90.9393 515.062 91.1766C514.52 91.4139 514.045 91.7443 513.639 92.168C513.232 92.5748 512.91 93.0578 512.673 93.6171C512.435 94.1764 512.317 94.7696 512.317 95.3966C512.317 96.0237 512.435 96.6169 512.673 97.1762C512.91 97.7185 513.232 98.193 513.639 98.5998C514.045 99.0065 514.52 99.3286 515.062 99.5658C515.622 99.8031 516.223 99.9217 516.867 99.9217C517.494 99.9217 518.087 99.8116 518.647 99.5913C519.206 99.354 519.689 99.015 520.096 98.5744C520.265 98.4049 520.426 98.2947 520.579 98.2439C520.748 98.1761 520.926 98.1422 521.113 98.1422C521.502 98.1422 521.858 98.2863 522.18 98.5744C522.502 98.8625 522.663 99.2099 522.663 99.6167C522.663 99.9556 522.511 100.295 522.206 100.634C521.511 101.345 520.697 101.896 519.765 102.286C518.85 102.659 517.884 102.845 516.867 102.845C515.833 102.845 514.859 102.65 513.944 102.261C513.045 101.871 512.257 101.345 511.579 100.684C510.902 100.006 510.368 99.2184 509.978 98.3202C509.588 97.405 509.393 96.4305 509.393 95.3966C509.393 94.3628 509.588 93.3968 509.978 92.4985C510.368 91.5833 510.902 90.7868 511.579 90.1089C512.257 89.4309 513.045 88.8971 513.944 88.5073C514.859 88.1005 515.833 87.8972 516.867 87.8972ZM540.028 87.8972C541.045 87.8972 542.002 88.0921 542.901 88.4819C543.816 88.8717 544.612 89.3971 545.29 90.058C545.968 90.702 546.502 91.4647 546.892 92.346C547.299 93.2103 547.502 94.1255 547.502 95.0916C547.502 95.5831 547.375 95.9559 547.121 96.2101C546.867 96.4644 546.511 96.5915 546.053 96.5915H535.732C535.816 97.066 535.994 97.5067 536.266 97.9134C536.537 98.3202 536.867 98.6761 537.257 98.9811C537.664 99.2692 538.104 99.498 538.579 99.6675C539.054 99.837 539.537 99.9217 540.028 99.9217C540.655 99.9217 541.231 99.8116 541.757 99.5913C542.282 99.3709 542.748 99.0574 543.155 98.6506C543.324 98.4981 543.511 98.3795 543.714 98.2947C543.918 98.193 544.112 98.1422 544.299 98.1422C544.689 98.1422 545.011 98.2863 545.265 98.5744C545.536 98.8625 545.672 99.2014 545.672 99.5913C545.672 99.7946 545.646 99.9895 545.595 100.176C545.545 100.362 545.443 100.532 545.29 100.684C544.629 101.413 543.85 101.955 542.952 102.311C542.053 102.667 541.079 102.845 540.028 102.845C538.994 102.845 538.02 102.65 537.105 102.261C536.206 101.871 535.418 101.345 534.74 100.684C534.062 100.006 533.528 99.2184 533.139 98.3202C532.749 97.405 532.554 96.4305 532.554 95.3966C532.554 94.3628 532.749 93.3968 533.139 92.4985C533.528 91.5833 534.062 90.7868 534.74 90.1089C535.418 89.4309 536.206 88.8971 537.105 88.5073C538.02 88.1005 538.994 87.8972 540.028 87.8972ZM540.028 90.8207C539.537 90.8207 539.054 90.9054 538.579 91.0749C538.104 91.2444 537.672 91.4817 537.282 91.7867C536.91 92.0918 536.588 92.4477 536.316 92.8544C536.045 93.2612 535.859 93.7018 535.757 94.1764H544.299C544.214 93.7018 544.036 93.2612 543.765 92.8544C543.494 92.4477 543.163 92.0918 542.774 91.7867C542.384 91.4817 541.952 91.2444 541.477 91.0749C541.003 90.9054 540.52 90.8207 540.028 90.8207ZM575.132 95.1678C575.132 95.5915 574.997 95.939 574.725 96.2101C574.471 96.4813 574.115 96.6169 573.658 96.6169C573.251 96.6169 572.903 96.4813 572.615 96.2101C572.344 95.939 572.209 95.5915 572.209 95.1678V85.2279C572.209 84.7872 572.344 84.4398 572.615 84.1856C572.903 83.9144 573.251 83.7788 573.658 83.7788C574.115 83.7788 574.471 83.9144 574.725 84.1856C574.997 84.4398 575.132 84.7872 575.132 85.2279V95.1678ZM575.132 101.066C575.132 101.523 574.997 101.888 574.725 102.159C574.471 102.413 574.115 102.54 573.658 102.54C573.251 102.54 572.903 102.413 572.615 102.159C572.344 101.888 572.209 101.523 572.209 101.066V99.515C572.209 99.0913 572.344 98.7439 572.615 98.4727C572.903 98.2015 573.251 98.0659 573.658 98.0659C574.115 98.0659 574.471 98.2015 574.725 98.4727C574.997 98.7439 575.132 99.0913 575.132 99.515V101.066Z" fill="#929292"/>
</svg>
