<svg width="233" height="221" viewBox="0 0 233 221" fill="none" xmlns="http://www.w3.org/2000/svg">
<path d="M180.381 68.0488C185.092 68.0488 188.911 71.8673 188.911 76.5781V123.434C188.911 128.145 192.73 131.964 197.441 131.964H223.605C228.316 131.964 232.136 135.782 232.136 140.493V145.265C232.135 149.975 228.316 153.794 223.605 153.794H176.975C173.74 153.794 170.925 151.993 169.479 149.34C175.108 143.862 178.606 136.205 178.606 127.73C178.606 118.748 174.677 110.683 168.445 105.159V76.5781C168.445 71.8674 172.264 68.0489 176.975 68.0488H180.381Z" fill="url(#paint0_linear_697_2332)"/>
<path d="M212.691 91.3404C215.982 90.7234 218.166 87.5498 217.369 84.2982C211.542 60.5283 197.938 39.3137 178.634 24.0836C157.739 7.59885 131.58 -0.758382 104.998 0.558717C78.4163 1.87582 53.2114 12.7781 34.0486 31.2476C14.8858 49.7172 3.06273 74.5035 0.767549 101.019C-1.52763 127.534 5.86052 153.984 21.5646 175.471C37.2687 196.959 60.2253 212.03 86.1856 217.895C112.146 223.76 139.352 220.022 162.769 207.373C184.403 195.687 201.449 177.125 211.274 154.71C212.618 151.644 211.012 148.142 207.876 146.969L206.858 146.588C203.723 145.415 200.247 147.015 198.88 150.072C190.19 169.499 175.314 185.582 156.49 195.75C135.883 206.881 111.942 210.171 89.0969 205.009C66.2518 199.848 46.05 186.585 32.2304 167.676C18.4108 148.767 11.9092 125.492 13.929 102.158C15.9488 78.8246 26.3531 57.0127 43.2163 40.7594C60.0796 24.5062 82.2599 14.9122 105.652 13.7532C129.044 12.5942 152.064 19.9485 170.452 34.4551C187.248 47.7066 199.14 66.1067 204.362 86.7382C205.184 89.9838 208.333 92.1577 211.623 91.5407L212.691 91.3404Z" fill="black"/>
<path d="M212.691 91.3404C215.982 90.7234 218.166 87.5504 217.369 84.2988C212.684 65.1895 202.952 47.6454 189.142 33.5282C173.916 17.9637 154.416 7.26387 133.109 2.78167C111.802 -1.70053 89.6437 0.23624 69.4373 8.34707C51.1097 15.7037 35.1341 27.8399 23.1473 43.4422C21.1077 46.097 21.8282 49.881 24.5913 51.7715L25.4883 52.3852C28.2514 54.2757 32.0092 53.5547 34.0687 50.9153C44.5659 37.4622 58.4561 26.9901 74.3584 20.607C92.14 13.4694 111.639 11.7651 130.389 15.7094C149.14 19.6537 166.299 29.0696 179.698 42.7663C191.681 55.0154 200.175 70.1962 204.362 86.7384C205.184 89.9839 208.333 92.1577 211.623 91.5407L212.691 91.3404Z" fill="url(#paint1_linear_697_2332)"/>
<path d="M38.5164 35.3616C36.2014 32.943 32.3502 32.8482 30.0626 35.2927C11.5932 55.0284 0.97874 80.9377 0.383814 108.102C-0.211112 135.267 9.25884 161.616 26.8465 182.141C29.0249 184.684 32.8766 184.758 35.2952 182.443L36.0803 181.691C38.4989 179.376 38.5663 175.55 36.4071 172.992C21.2323 155.011 13.0731 132.053 13.5913 108.392C14.1095 84.7305 23.2659 62.1518 39.2135 44.8522C41.4827 42.3907 41.5828 38.5653 39.2679 36.1467L38.5164 35.3616Z" fill="url(#paint2_linear_697_2332)"/>
<path d="M27.6724 173.521C25.0085 175.549 24.4803 179.365 26.6517 181.913C38.0694 195.313 52.5559 205.803 68.9142 212.467C87.1471 219.894 107.038 222.296 126.515 219.423C145.992 216.549 164.342 208.505 179.653 196.128C193.39 185.024 204.229 170.798 211.291 154.671C212.634 151.604 211.026 148.104 207.89 146.932L206.872 146.551C203.736 145.379 200.261 146.981 198.895 150.037C192.676 163.955 183.247 176.236 171.348 185.854C157.874 196.746 141.726 203.825 124.587 206.353C107.447 208.882 89.943 206.769 73.898 200.232C59.7281 194.46 47.1542 185.425 37.1809 173.897C34.9905 171.365 31.2011 170.835 28.5372 172.863L27.6724 173.521Z" fill="url(#paint3_linear_697_2332)"/>
<circle cx="215.583" cy="103.055" r="7.86591" fill="#C300E1"/>
<path d="M20.123 110.526C20.123 86.6134 39.5079 67.2285 63.4203 67.2285L64.3698 67.2285C69.0807 67.2285 72.8997 71.0475 72.8997 75.7584V82.2853C72.8997 86.6794 69.3375 90.2416 64.9434 90.2416V90.2416C53.4208 90.2416 44.0799 99.5825 44.0799 111.105C44.0799 122.628 53.4208 131.969 64.9434 131.969H121.528C126.239 131.969 130.058 135.788 130.058 140.499V145.293C130.058 150.004 126.239 153.823 121.528 153.823H63.4203C39.5079 153.823 20.123 134.438 20.123 110.526Z" fill="url(#paint4_linear_697_2332)"/>
<path d="M20.9858 101.372C26.3811 77.4824 47.4833 66.624 64.5429 67.2375C68.6558 67.2828 72.8122 70.5987 72.8891 75.6604V82.4333C72.808 86.6904 69.3313 90.4235 64.4474 90.2595C62.8595 90.2595 58.8964 90.5678 55.0685 92.6727C38.6606 101.695 28.1634 119.222 30.041 138.111C25.4535 132.499 17.757 120.946 20.9858 101.372Z" fill="url(#paint5_linear_697_2332)"/>
<path d="M168.451 89.8339C171.822 81.2772 180.681 74.8495 188.482 73.1504C188.691 73.7937 188.869 74.3918 188.944 75.6629L188.913 118.475V123.568C189.052 128.901 193.331 131.664 196.649 131.913C188.607 131.74 183.499 129.89 178.597 126.627C178.317 118.241 174.556 110.569 168.451 105.162V89.8339Z" fill="url(#paint6_linear_697_2332)"/>
<path d="M120.348 140.499C120.348 135.788 124.167 131.969 128.878 131.969H143.614C144.118 131.969 144.627 131.932 145.117 131.811C153.803 129.676 150.518 119.426 144.888 119.426H102.947C65.2178 117.25 70.9004 63.7509 106.034 67.4163H180.418C185.129 67.4163 188.948 71.2353 188.948 75.9462V81.251C188.948 85.9441 185.156 89.7556 180.463 89.7808L106.034 90.1802C99.9727 90.1802 97.9889 102.224 106.034 102.224H144.888C158.41 102.224 171.37 106.17 173.978 122.612C176.807 140.448 165.374 153.824 144.888 153.824H128.878C124.167 153.824 120.348 150.005 120.348 145.294V140.499Z" fill="url(#paint7_linear_697_2332)"/>
<path d="M120.521 131.981H143.985C150.8 131.981 164.42 126.998 168.037 109.783C178.939 120.705 178.927 154.077 143.906 153.824H70.7559C81.2809 139.332 96.4388 132.885 120.521 131.981Z" fill="url(#paint8_linear_697_2332)"/>
<defs>
<linearGradient id="paint0_linear_697_2332" x1="183.048" y1="119.998" x2="210.536" y2="151.973" gradientUnits="userSpaceOnUse">
<stop stop-color="#47166D"/>
<stop offset="0.816757" stop-color="#D600F7"/>
</linearGradient>
<linearGradient id="paint1_linear_697_2332" x1="203.378" y1="69.0865" x2="7.88298" y2="97.9754" gradientUnits="userSpaceOnUse">
<stop stop-color="#C300E1"/>
<stop offset="1" stop-color="#56177A"/>
</linearGradient>
<linearGradient id="paint2_linear_697_2332" x1="55.3716" y1="59.5888" x2="15.0063" y2="161.689" gradientUnits="userSpaceOnUse">
<stop stop-color="#5406AB"/>
<stop offset="1" stop-color="#2EC7FE"/>
</linearGradient>
<linearGradient id="paint3_linear_697_2332" x1="204.156" y1="153.393" x2="110.446" y2="220.602" gradientUnits="userSpaceOnUse">
<stop stop-color="#D600F6"/>
<stop offset="1" stop-color="#392296"/>
</linearGradient>
<linearGradient id="paint4_linear_697_2332" x1="33.7841" y1="106.774" x2="117.34" y2="149.778" gradientUnits="userSpaceOnUse">
<stop offset="0.0683382" stop-color="#5503AA"/>
<stop offset="0.708278" stop-color="#2EC9FF"/>
</linearGradient>
<linearGradient id="paint5_linear_697_2332" x1="46.462" y1="67.2129" x2="46.462" y2="153.163" gradientUnits="userSpaceOnUse">
<stop stop-color="#FE1EFF"/>
<stop offset="1" stop-color="#061439"/>
</linearGradient>
<linearGradient id="paint6_linear_697_2332" x1="182.55" y1="80.5479" x2="182.55" y2="131.913" gradientUnits="userSpaceOnUse">
<stop stop-color="#5406AB"/>
<stop offset="1" stop-color="#2EC9FF"/>
</linearGradient>
<linearGradient id="paint7_linear_697_2332" x1="127.977" y1="80.7377" x2="160.749" y2="134.387" gradientUnits="userSpaceOnUse">
<stop stop-color="#20E9FB"/>
<stop offset="1" stop-color="#153DD7"/>
</linearGradient>
<linearGradient id="paint8_linear_697_2332" x1="78.3343" y1="146.609" x2="172.53" y2="130.032" gradientUnits="userSpaceOnUse">
<stop stop-color="#7D2BFF"/>
<stop offset="1" stop-color="#F21DF5"/>
</linearGradient>
</defs>
</svg>
