<svg width="232" height="37" viewBox="0 0 232 37" fill="none" xmlns="http://www.w3.org/2000/svg">
<path d="M9.80169 2.6145C11.0204 2.6145 12.1593 2.8684 13.2185 3.3762C14.2921 3.86949 15.2061 4.53689 15.9606 5.37838C16.0476 5.49445 16.1274 5.61052 16.2 5.72659C16.2725 5.84266 16.3088 6.00225 16.3088 6.20537C16.3088 6.59711 16.1927 6.90904 15.9606 7.14118C15.7284 7.35881 15.4238 7.46762 15.0465 7.46762C14.7709 7.46762 14.5678 7.42409 14.4372 7.33704C14.3066 7.23548 14.205 7.14118 14.1325 7.05412C13.5812 6.44476 12.9355 5.97324 12.1956 5.63954C11.4702 5.29133 10.6722 5.11723 9.80169 5.11723C8.98921 5.11723 8.22751 5.26957 7.51659 5.57425C6.82017 5.87893 6.21081 6.29968 5.6885 6.8365C5.16619 7.35881 4.7527 7.97542 4.44802 8.68634C4.15785 9.38275 4.01276 10.1299 4.01276 10.9279C4.01276 11.7259 4.15785 12.4731 4.44802 13.1695C4.7527 13.8659 5.16619 14.4753 5.6885 14.9976C6.21081 15.5199 6.82017 15.9334 7.51659 16.2381C8.22751 16.5427 8.98921 16.6951 9.80169 16.6951C10.6722 16.6951 11.4629 16.5427 12.1738 16.2381C12.8993 15.9189 13.5377 15.4546 14.089 14.8452C14.205 14.7002 14.3356 14.5841 14.4807 14.497C14.6403 14.3955 14.8217 14.3447 15.0248 14.3447C15.402 14.3447 15.7067 14.4535 15.9388 14.6711C16.1855 14.8888 16.3088 15.1717 16.3088 15.5199C16.3088 15.9116 16.1782 16.2526 15.9171 16.5427C15.1481 17.3697 14.2413 18.0226 13.1967 18.5014C12.1666 18.9657 11.0349 19.1978 9.80169 19.1978C8.65551 19.1978 7.57462 18.9874 6.55902 18.5667C5.55793 18.1314 4.68016 17.5438 3.92571 16.8039C3.18577 16.0495 2.59817 15.1717 2.16292 14.1706C1.72766 13.1695 1.51003 12.0886 1.51003 10.9279C1.51003 9.78174 1.72766 8.7081 2.16292 7.70701C2.59817 6.69141 3.18577 5.80639 3.92571 5.05194C4.68016 4.29749 5.55793 3.70264 6.55902 3.26738C7.57462 2.83213 8.65551 2.6145 9.80169 2.6145ZM29.2008 17.6962C29.2008 18.0879 29.0847 18.3998 28.8525 18.632C28.6349 18.8496 28.3302 18.9584 27.9385 18.9584C27.5903 18.9584 27.2929 18.8496 27.0462 18.632C26.8141 18.3998 26.698 18.0879 26.698 17.6962V17.6309C26.4949 17.834 26.2555 18.0371 25.9798 18.2402C25.7187 18.4289 25.4213 18.5957 25.0876 18.7408C24.7684 18.8859 24.4274 19.0019 24.0647 19.089C23.702 19.1761 23.3393 19.2196 22.9766 19.2196C22.048 19.2196 21.192 19.0527 20.4085 18.719C19.6251 18.3853 18.9504 17.9356 18.3846 17.3697C17.8188 16.7894 17.3762 16.1147 17.0571 15.3458C16.7379 14.5623 16.5783 13.7281 16.5783 12.8431C16.5783 11.958 16.7379 11.131 17.0571 10.3621C17.3762 9.57862 17.8188 8.89672 18.3846 8.31637C18.9649 7.73603 19.6468 7.27901 20.4303 6.94531C21.2138 6.5971 22.0625 6.423 22.9766 6.423C23.789 6.423 24.5072 6.56083 25.1311 6.8365C25.755 7.11216 26.2773 7.48213 26.698 7.9464C26.698 7.56918 26.8141 7.27175 27.0462 7.05412C27.2929 6.82199 27.5903 6.70592 27.9385 6.70592C28.3302 6.70592 28.6349 6.82199 28.8525 7.05412C29.0847 7.27175 29.2008 7.56918 29.2008 7.9464V17.6962ZM22.9766 8.92573C22.4252 8.92573 21.9102 9.02729 21.4314 9.23041C20.9671 9.43353 20.5609 9.71645 20.2127 10.0792C19.8645 10.4274 19.5888 10.8409 19.3857 11.3197C19.1826 11.7984 19.081 12.3062 19.081 12.8431C19.081 13.3799 19.1826 13.8877 19.3857 14.3665C19.5888 14.8307 19.8645 15.237 20.2127 15.5852C20.5609 15.9334 20.9671 16.209 21.4314 16.4122C21.9102 16.6153 22.4252 16.7168 22.9766 16.7168C23.4989 16.7168 23.9849 16.6153 24.4347 16.4122C24.899 16.209 25.2907 15.9334 25.6099 15.5852C25.9436 15.237 26.2047 14.8307 26.3933 14.3665C26.5819 13.8877 26.6763 13.3799 26.6763 12.8431C26.6763 12.3062 26.5819 11.7984 26.3933 11.3197C26.2047 10.8409 25.9436 10.4274 25.6099 10.0792C25.2907 9.71645 24.899 9.43353 24.4347 9.23041C23.9849 9.02729 23.4989 8.92573 22.9766 8.92573ZM32.5354 6.70592C32.8981 6.70592 33.1665 6.82199 33.3406 7.05412C33.5147 7.27175 33.6163 7.57644 33.6453 7.96817C34.0661 7.50389 34.5231 7.17019 35.0164 6.96707C35.5097 6.76395 36.0828 6.66239 36.7356 6.66239C37.0984 6.66239 37.3958 6.76395 37.6279 6.96707C37.8746 7.15569 37.9979 7.46762 37.9979 7.90288C37.9979 8.25108 37.9108 8.534 37.7367 8.75163C37.5626 8.95475 37.287 9.07082 36.9097 9.09984C36.2859 9.14336 35.7708 9.23767 35.3646 9.38275C34.9583 9.52784 34.6391 9.73096 34.407 9.99212C34.1749 10.2388 34.0153 10.5434 33.9282 10.9062C33.8412 11.2544 33.7976 11.6461 33.7976 12.0814V17.805C33.7976 18.1242 33.6816 18.3998 33.4494 18.632C33.2318 18.8496 32.9344 18.9584 32.5572 18.9584C32.1799 18.9584 31.8753 18.8496 31.6431 18.632C31.411 18.3998 31.2949 18.1169 31.2949 17.7832V8.07698C31.2949 7.69976 31.382 7.38057 31.5561 7.11941C31.7447 6.84375 32.0711 6.70592 32.5354 6.70592ZM41.6612 4.87784C41.6612 5.25506 41.5451 5.55974 41.313 5.79188C41.0954 6.00951 40.7907 6.11832 40.3989 6.11832C40.0507 6.11832 39.7533 6.00951 39.5067 5.79188C39.2745 5.55974 39.1585 5.25506 39.1585 4.87784V3.13681C39.1585 2.75958 39.2745 2.46216 39.5067 2.24453C39.7533 2.01239 40.0507 1.89632 40.3989 1.89632C40.7907 1.89632 41.0954 2.01239 41.313 2.24453C41.5451 2.46216 41.6612 2.75958 41.6612 3.13681V4.87784ZM41.6612 17.6962C41.6612 18.0879 41.5451 18.3998 41.313 18.632C41.0954 18.8496 40.7907 18.9584 40.3989 18.9584C40.0507 18.9584 39.7533 18.8496 39.5067 18.632C39.2745 18.3998 39.1585 18.0879 39.1585 17.6962V8.38166C39.1585 8.01895 39.2745 7.72152 39.5067 7.48938C39.7533 7.25725 40.0507 7.14118 40.3989 7.14118C40.7907 7.14118 41.0954 7.25725 41.313 7.48938C41.5451 7.72152 41.6612 8.01895 41.6612 8.38166V17.6962ZM44.858 6.70592C45.5689 6.70592 45.9896 7.06863 46.1202 7.79406C46.4974 7.37332 46.9617 7.03962 47.513 6.79297C48.0644 6.54632 48.681 6.423 49.3629 6.423C50.1463 6.423 50.8573 6.56809 51.4956 6.85826C52.134 7.13392 52.6781 7.5184 53.1279 8.01169C53.5776 8.50498 53.9186 9.09258 54.1507 9.77449C54.3974 10.4419 54.5207 11.1673 54.5207 11.9508V17.7179C54.5207 18.1097 54.4046 18.4144 54.1725 18.632C53.9548 18.8496 53.6574 18.9584 53.2802 18.9584C52.9175 18.9584 52.6201 18.8496 52.3879 18.632C52.1558 18.4144 52.0397 18.1097 52.0397 17.7179V11.9508C52.0397 11.53 51.9744 11.1383 51.8438 10.7756C51.7133 10.3984 51.5247 10.0719 51.278 9.79625C51.0459 9.52059 50.7557 9.30296 50.4075 9.14336C50.0593 8.98377 49.6676 8.90397 49.2323 8.90397C48.797 8.90397 48.3981 8.98377 48.0353 9.14336C47.6726 9.30296 47.3607 9.52059 47.0995 9.79625C46.8384 10.0574 46.6353 10.3766 46.4902 10.7538C46.3596 11.1165 46.2943 11.5155 46.2943 11.9508V17.7179C46.2943 18.1097 46.1782 18.4144 45.9461 18.632C45.7285 18.8496 45.4238 18.9584 45.0321 18.9584C44.6839 18.9584 44.3864 18.8496 44.1398 18.632C43.9076 18.4144 43.7916 18.1097 43.7916 17.7179V7.79406C43.7916 7.46037 43.8931 7.19921 44.0963 7.0106C44.3139 6.80748 44.5678 6.70592 44.858 6.70592ZM68.8585 17.6962C68.8585 18.0879 68.7424 18.3998 68.5103 18.632C68.2927 18.8496 67.988 18.9584 67.5963 18.9584C67.2481 18.9584 66.9506 18.8496 66.704 18.632C66.4718 18.3998 66.3558 18.0879 66.3558 17.6962V17.6309C66.1527 17.834 65.9133 18.0371 65.6376 18.2402C65.3764 18.4289 65.079 18.5957 64.7453 18.7408C64.4261 18.8859 64.0852 19.0019 63.7225 19.089C63.3597 19.1761 62.997 19.2196 62.6343 19.2196C61.7058 19.2196 60.8498 19.0527 60.0663 18.719C59.2828 18.3853 58.6082 17.9356 58.0424 17.3697C57.4765 16.7894 57.034 16.1147 56.7148 15.3458C56.3956 14.5623 56.236 13.7281 56.236 12.8431C56.236 11.958 56.3956 11.131 56.7148 10.3621C57.034 9.57862 57.4765 8.89672 58.0424 8.31637C58.6227 7.73603 59.3046 7.27901 60.0881 6.94531C60.8715 6.5971 61.7203 6.423 62.6343 6.423C63.4468 6.423 64.165 6.56083 64.7888 6.8365C65.4127 7.11216 65.935 7.48213 66.3558 7.9464C66.3558 7.56918 66.4718 7.27175 66.704 7.05412C66.9506 6.82199 67.2481 6.70592 67.5963 6.70592C67.988 6.70592 68.2927 6.82199 68.5103 7.05412C68.7424 7.27175 68.8585 7.56918 68.8585 7.9464V17.6962ZM62.6343 8.92573C62.083 8.92573 61.5679 9.02729 61.0892 9.23041C60.6249 9.43353 60.2186 9.71645 59.8704 10.0792C59.5222 10.4274 59.2466 10.8409 59.0434 11.3197C58.8403 11.7984 58.7388 12.3062 58.7388 12.8431C58.7388 13.3799 58.8403 13.8877 59.0434 14.3665C59.2466 14.8307 59.5222 15.237 59.8704 15.5852C60.2186 15.9334 60.6249 16.209 61.0892 16.4122C61.5679 16.6153 62.083 16.7168 62.6343 16.7168C63.1566 16.7168 63.6427 16.6153 64.0924 16.4122C64.5567 16.209 64.9484 15.9334 65.2676 15.5852C65.6013 15.237 65.8625 14.8307 66.0511 14.3665C66.2397 13.8877 66.334 13.3799 66.334 12.8431C66.334 12.3062 66.2397 11.7984 66.0511 11.3197C65.8625 10.8409 65.6013 10.4274 65.2676 10.0792C64.9484 9.71645 64.5567 9.43353 64.0924 9.23041C63.6427 9.02729 63.1566 8.92573 62.6343 8.92573ZM164.078 3.00623C164.833 3.00623 165.544 3.12955 166.211 3.3762C166.893 3.62284 167.481 3.9783 167.974 4.44258C168.467 4.89235 168.859 5.44367 169.149 6.09656C169.439 6.74945 169.584 7.48213 169.584 8.29461C169.584 9.10709 169.439 9.83978 169.149 10.4927C168.859 11.131 168.467 11.6824 167.974 12.1466C167.481 12.5964 166.893 12.9446 166.211 13.1913C165.544 13.4379 164.833 13.5612 164.078 13.5612H162.228V17.6962C162.228 18.0879 162.112 18.3998 161.88 18.632C161.663 18.8496 161.358 18.9584 160.966 18.9584C160.618 18.9584 160.321 18.8496 160.074 18.632C159.842 18.3998 159.726 18.0879 159.726 17.6962V4.24671C159.726 3.86949 159.842 3.57206 160.074 3.35444C160.321 3.1223 160.618 3.00623 160.966 3.00623H164.078ZM162.228 11.0585H164.078C164.484 11.0585 164.869 11.0005 165.232 10.8844C165.609 10.7538 165.928 10.5725 166.189 10.3403C166.465 10.0937 166.683 9.8035 166.842 9.46981C167.002 9.1216 167.082 8.72987 167.082 8.29461C167.082 7.85935 167.002 7.47487 166.842 7.14118C166.683 6.79297 166.465 6.5028 166.189 6.27066C165.928 6.02402 165.609 5.8354 165.232 5.70483C164.869 5.57425 164.484 5.50896 164.078 5.50896H162.228V11.0585ZM177.96 7.55467C178.148 6.98884 178.54 6.70592 179.135 6.70592C179.454 6.70592 179.744 6.82199 180.005 7.05412C180.267 7.28626 180.397 7.59094 180.397 7.96817C180.397 8.14227 180.368 8.31637 180.31 8.49048L176.763 18.0879C176.661 18.3636 176.502 18.5812 176.284 18.7408C176.081 18.8859 175.856 18.9584 175.609 18.9584C175.363 18.9584 175.131 18.8859 174.913 18.7408C174.71 18.5957 174.55 18.3781 174.434 18.0879L170.887 8.534C170.8 8.34539 170.756 8.15678 170.756 7.96817C170.756 7.59094 170.887 7.28626 171.148 7.05412C171.424 6.82199 171.721 6.70592 172.04 6.70592C172.359 6.70592 172.606 6.77846 172.78 6.92355C172.954 7.05413 173.099 7.2645 173.215 7.55467L175.609 14.1924L177.96 7.55467ZM184.568 6.81473H185.351C185.728 6.81473 186.026 6.9308 186.243 7.16294C186.476 7.38057 186.592 7.68525 186.592 8.07698C186.592 8.42519 186.476 8.72261 186.243 8.96926C186.026 9.2014 185.728 9.31747 185.351 9.31747H184.568V15.1064C184.568 15.3966 184.604 15.6287 184.676 15.8028C184.764 15.9769 184.88 16.1147 185.025 16.2163C185.17 16.3179 185.329 16.3904 185.503 16.4339C185.678 16.4775 185.866 16.5065 186.069 16.521C186.403 16.55 186.657 16.6806 186.831 16.9127C187.02 17.1303 187.114 17.4278 187.114 17.805C187.114 18.1532 186.991 18.4361 186.744 18.6537C186.497 18.8569 186.135 18.9584 185.656 18.9584C185.148 18.9584 184.676 18.8859 184.241 18.7408C183.806 18.5957 183.422 18.3708 183.088 18.0661C182.769 17.747 182.515 17.348 182.326 16.8692C182.152 16.3759 182.065 15.7956 182.065 15.1282V9.31747C181.731 9.27394 181.47 9.13611 181.281 8.90397C181.107 8.67183 181.02 8.39617 181.02 8.07698C181.02 7.72877 181.107 7.44586 181.281 7.22823C181.47 6.99609 181.731 6.86551 182.065 6.8365V3.15857C182.065 2.76684 182.181 2.46216 182.413 2.24453C182.66 2.01239 182.957 1.89632 183.305 1.89632C183.697 1.89632 184.002 2.01239 184.219 2.24453C184.452 2.46216 184.568 2.76684 184.568 3.15857V6.81473ZM190.941 17.6962C190.941 18.0879 190.825 18.3998 190.593 18.632C190.375 18.8496 190.07 18.9584 189.679 18.9584C189.331 18.9584 189.033 18.8496 188.786 18.632C188.554 18.3998 188.438 18.0879 188.438 17.6962V16.2598C188.438 15.8971 188.554 15.5997 188.786 15.3675C189.033 15.1354 189.331 15.0193 189.679 15.0193C190.07 15.0193 190.375 15.1354 190.593 15.3675C190.825 15.5997 190.941 15.8971 190.941 16.2598V17.6962ZM200.675 16.3469H205.724C206.101 16.3469 206.398 16.4629 206.616 16.6951C206.848 16.9127 206.964 17.2101 206.964 17.5874C206.964 17.9791 206.848 18.291 206.616 18.5232C206.398 18.7408 206.101 18.8496 205.724 18.8496H199.434C199.028 18.8496 198.716 18.7408 198.498 18.5232C198.281 18.291 198.172 17.9791 198.172 17.5874V4.1379C198.172 3.76068 198.288 3.46325 198.52 3.24562C198.767 3.01348 199.064 2.89741 199.413 2.89741C199.804 2.89741 200.109 3.01348 200.327 3.24562C200.559 3.46325 200.675 3.76068 200.675 4.1379V16.3469ZM210.199 6.81473H210.982C211.359 6.81473 211.657 6.9308 211.874 7.16294C212.106 7.38057 212.223 7.68525 212.223 8.07698C212.223 8.42519 212.106 8.72261 211.874 8.96926C211.657 9.2014 211.359 9.31747 210.982 9.31747H210.199V15.1064C210.199 15.3966 210.235 15.6287 210.307 15.8028C210.394 15.9769 210.511 16.1147 210.656 16.2163C210.801 16.3179 210.96 16.3904 211.134 16.4339C211.308 16.4775 211.497 16.5065 211.7 16.521C212.034 16.55 212.288 16.6806 212.462 16.9127C212.651 17.1303 212.745 17.4278 212.745 17.805C212.745 18.1532 212.622 18.4361 212.375 18.6537C212.128 18.8569 211.765 18.9584 211.287 18.9584C210.779 18.9584 210.307 18.8859 209.872 18.7408C209.437 18.5957 209.052 18.3708 208.719 18.0661C208.4 17.747 208.146 17.348 207.957 16.8692C207.783 16.3759 207.696 15.7956 207.696 15.1282V9.31747C207.362 9.27394 207.101 9.13611 206.912 8.90397C206.738 8.67183 206.651 8.39617 206.651 8.07698C206.651 7.72877 206.738 7.44586 206.912 7.22823C207.101 6.99609 207.362 6.86551 207.696 6.8365V3.15857C207.696 2.76684 207.812 2.46216 208.044 2.24453C208.291 2.01239 208.588 1.89632 208.936 1.89632C209.328 1.89632 209.633 2.01239 209.85 2.24453C210.083 2.46216 210.199 2.76684 210.199 3.15857V6.81473ZM219.225 8.92573C218.674 8.92573 218.159 9.02729 217.68 9.23041C217.216 9.43353 216.809 9.71645 216.461 10.0792C216.113 10.4274 215.837 10.8409 215.634 11.3197C215.431 11.7984 215.33 12.3062 215.33 12.8431C215.33 13.3799 215.431 13.8877 215.634 14.3665C215.837 14.8307 216.113 15.237 216.461 15.5852C216.809 15.9334 217.216 16.209 217.68 16.4122C218.159 16.6153 218.674 16.7168 219.225 16.7168C219.747 16.7168 220.233 16.6153 220.683 16.4122C221.147 16.209 221.539 15.9334 221.858 15.5852C222.192 15.237 222.453 14.8307 222.642 14.3665C222.83 13.8877 222.925 13.3799 222.925 12.8431C222.925 12.3062 222.83 11.7984 222.642 11.3197C222.453 10.8409 222.192 10.4274 221.858 10.0792C221.539 9.71645 221.147 9.43353 220.683 9.23041C220.233 9.02729 219.747 8.92573 219.225 8.92573ZM222.925 3.13681C222.925 2.75958 223.034 2.46216 223.251 2.24453C223.483 2.01239 223.795 1.89632 224.187 1.89632C224.564 1.89632 224.869 2.01239 225.101 2.24453C225.333 2.46216 225.449 2.75958 225.449 3.13681V17.8485C225.449 18.1822 225.348 18.4506 225.145 18.6537C224.956 18.8569 224.709 18.9584 224.405 18.9584C224.042 18.9584 223.73 18.8496 223.469 18.632C223.222 18.4144 223.07 18.0516 223.012 17.5438C222.823 17.7615 222.591 17.9718 222.315 18.175C222.04 18.3781 221.735 18.5594 221.401 18.719C221.068 18.8641 220.712 18.9802 220.335 19.0672C219.972 19.1688 219.602 19.2196 219.225 19.2196C218.398 19.2196 217.593 19.0527 216.809 18.719C216.04 18.3853 215.359 17.9356 214.764 17.3697C214.183 16.7894 213.712 16.1147 213.349 15.3458C213.001 14.5623 212.827 13.7281 212.827 12.8431C212.827 11.958 213.001 11.131 213.349 10.3621C213.712 9.57862 214.183 8.89672 214.764 8.31637C215.359 7.73603 216.04 7.27901 216.809 6.94531C217.593 6.5971 218.398 6.423 219.225 6.423C220.052 6.423 220.777 6.56809 221.401 6.85826C222.025 7.13392 222.533 7.51115 222.925 7.98993V3.13681ZM230.046 17.6962C230.046 18.0879 229.93 18.3998 229.698 18.632C229.48 18.8496 229.176 18.9584 228.784 18.9584C228.436 18.9584 228.138 18.8496 227.892 18.632C227.659 18.3998 227.543 18.0879 227.543 17.6962V16.2598C227.543 15.8971 227.659 15.5997 227.892 15.3675C228.138 15.1354 228.436 15.0193 228.784 15.0193C229.176 15.0193 229.48 15.1354 229.698 15.3675C229.93 15.5997 230.046 15.8971 230.046 16.2598V17.6962Z" fill="white"/>
<path d="M80.4059 2.65802C80.9427 2.65802 81.5086 2.78135 82.1034 3.02799C82.6983 3.27464 83.1843 3.57932 83.5615 3.94203C83.7647 4.13064 83.8952 4.312 83.9533 4.48611C84.0258 4.6457 84.0621 4.8198 84.0621 5.00841C84.0621 5.38564 83.9605 5.69032 83.7574 5.92246C83.5543 6.15459 83.2786 6.27066 82.9304 6.27066C82.6983 6.27066 82.5024 6.23439 82.3428 6.16185C82.1832 6.0748 82.0236 5.95873 81.864 5.81364C81.6029 5.56699 81.349 5.40015 81.1023 5.31309C80.8557 5.21153 80.5655 5.16076 80.2318 5.16076C79.7966 5.16076 79.3976 5.3276 79.0349 5.6613C78.6867 5.995 78.5126 6.45927 78.5126 7.05412C78.5126 7.48938 78.6286 7.83759 78.8608 8.09874C79.0929 8.34539 79.4556 8.59204 79.9489 8.83868C80.4422 9.08533 80.9645 9.30296 81.5158 9.49157C82.0817 9.68018 82.5532 9.91232 82.9304 10.188C83.5108 10.6232 83.9533 11.1673 84.258 11.8202C84.5771 12.4731 84.7367 13.1768 84.7367 13.9312C84.7367 14.5841 84.6207 15.2152 84.3885 15.8246C84.1709 16.4339 83.8372 16.9707 83.3874 17.435C82.9522 17.8993 82.4081 18.2693 81.7552 18.5449C81.1168 18.8206 80.3842 18.9584 79.5572 18.9584C78.8027 18.9584 78.1208 18.8061 77.5115 18.5014C76.9166 18.1967 76.4306 17.8558 76.0533 17.4785C75.8938 17.319 75.7704 17.1449 75.6834 16.9562C75.6108 16.7676 75.5746 16.5935 75.5746 16.4339C75.5746 16.0567 75.6834 15.7593 75.901 15.5417C76.1186 15.324 76.4161 15.2152 76.7933 15.2152C76.9384 15.2152 77.0907 15.2515 77.2503 15.324C77.4099 15.3821 77.5695 15.4909 77.7291 15.6505C78.0193 15.9406 78.3239 16.151 78.6431 16.2816C78.9623 16.3977 79.3541 16.4557 79.8183 16.4557C80.5873 16.4557 81.1821 16.2236 81.6029 15.7593C82.0236 15.2805 82.234 14.6711 82.234 13.9312C82.234 13.4669 82.1397 13.0824 81.9511 12.7778C81.7625 12.4586 81.4215 12.1757 80.9282 11.929C80.5075 11.7114 80.0214 11.5083 79.4701 11.3197C78.9188 11.1165 78.382 10.8626 77.8597 10.558C77.3519 10.2533 76.9166 9.8035 76.5539 9.20865C76.1912 8.59929 76.0098 7.88112 76.0098 7.05412C76.0098 6.43026 76.1186 5.84991 76.3363 5.31309C76.5539 4.77628 76.8586 4.312 77.2503 3.92027C77.642 3.52854 78.1063 3.22386 78.6431 3.00623C79.1799 2.77409 79.7675 2.65802 80.4059 2.65802ZM92.197 8.92573C91.6457 8.92573 91.1306 9.02729 90.6518 9.23041C90.1875 9.43353 89.7813 9.71645 89.4331 10.0792C89.0849 10.4274 88.8092 10.8409 88.6061 11.3197C88.403 11.7984 88.3014 12.3062 88.3014 12.8431C88.3014 13.3799 88.403 13.8877 88.6061 14.3665C88.8092 14.8307 89.0849 15.237 89.4331 15.5852C89.7813 15.9334 90.1875 16.209 90.6518 16.4122C91.1306 16.6153 91.6457 16.7168 92.197 16.7168C92.7338 16.7168 93.2343 16.6153 93.6986 16.4122C94.1774 16.209 94.5909 15.9334 94.9391 15.5852C95.3018 15.237 95.5847 14.8307 95.7879 14.3665C95.991 13.8877 96.0925 13.3799 96.0925 12.8431C96.0925 12.3062 95.991 11.7984 95.7879 11.3197C95.5847 10.8409 95.3018 10.4274 94.9391 10.0792C94.5909 9.71645 94.1774 9.43353 93.6986 9.23041C93.2343 9.02729 92.7338 8.92573 92.197 8.92573ZM92.197 6.423C93.082 6.423 93.909 6.5971 94.678 6.94531C95.4614 7.27901 96.1433 7.73603 96.7237 8.31637C97.304 8.89672 97.761 9.57862 98.0947 10.3621C98.4284 11.131 98.5953 11.958 98.5953 12.8431C98.5953 13.7281 98.4284 14.5623 98.0947 15.3458C97.761 16.1147 97.304 16.7894 96.7237 17.3697C96.1433 17.9356 95.4614 18.3853 94.678 18.719C93.909 19.0527 93.082 19.2196 92.197 19.2196C91.312 19.2196 90.4777 19.0527 89.6943 18.719C88.9253 18.3853 88.2506 17.9356 87.6703 17.3697C87.09 16.7894 86.6329 16.1147 86.2992 15.3458C85.9655 14.5623 85.7987 13.7281 85.7987 12.8431C85.7987 11.958 85.9655 11.131 86.2992 10.3621C86.6329 9.57862 87.09 8.89672 87.6703 8.31637C88.2506 7.73603 88.9253 7.27901 89.6943 6.94531C90.4777 6.5971 91.312 6.423 92.197 6.423ZM102.893 9.31747V17.6962C102.893 18.0879 102.777 18.3998 102.545 18.632C102.327 18.8496 102.023 18.9584 101.631 18.9584C101.283 18.9584 100.985 18.8496 100.739 18.632C100.506 18.3998 100.39 18.0879 100.39 17.6962V9.31747C100.057 9.27394 99.7955 9.14336 99.6069 8.92573C99.4328 8.7081 99.3458 8.41793 99.3458 8.05522C99.3458 7.73603 99.4328 7.46762 99.6069 7.24999C99.7955 7.01785 100.057 6.88002 100.39 6.8365V5.72659C100.39 5.05919 100.477 4.4861 100.652 4.00732C100.84 3.51403 101.094 3.11504 101.413 2.81036C101.747 2.49117 102.131 2.25904 102.567 2.11395C103.002 1.96886 103.473 1.89632 103.981 1.89632C104.46 1.89632 104.823 2.00514 105.069 2.22276C105.316 2.42588 105.439 2.70155 105.439 3.04976C105.439 3.42698 105.345 3.73166 105.156 3.9638C104.982 4.18142 104.728 4.30475 104.395 4.33376C104.192 4.34827 104.003 4.37729 103.829 4.42082C103.655 4.46434 103.495 4.53689 103.35 4.63844C103.205 4.74001 103.089 4.87784 103.002 5.05194C102.929 5.22604 102.893 5.45818 102.893 5.74835V6.81473H103.677C104.054 6.81473 104.351 6.93806 104.569 7.1847C104.801 7.41684 104.917 7.70701 104.917 8.05522C104.917 8.44695 104.801 8.75889 104.569 8.99102C104.351 9.20865 104.054 9.31747 103.677 9.31747H102.893ZM109.333 6.81473H110.116C110.493 6.81473 110.791 6.9308 111.008 7.16294C111.241 7.38057 111.357 7.68525 111.357 8.07698C111.357 8.42519 111.241 8.72261 111.008 8.96926C110.791 9.2014 110.493 9.31747 110.116 9.31747H109.333V15.1064C109.333 15.3966 109.369 15.6287 109.442 15.8028C109.529 15.9769 109.645 16.1147 109.79 16.2163C109.935 16.3179 110.094 16.3904 110.269 16.4339C110.443 16.4775 110.631 16.5065 110.834 16.521C111.168 16.55 111.422 16.6806 111.596 16.9127C111.785 17.1303 111.879 17.4278 111.879 17.805C111.879 18.1532 111.756 18.4361 111.509 18.6537C111.262 18.8569 110.9 18.9584 110.421 18.9584C109.913 18.9584 109.442 18.8859 109.006 18.7408C108.571 18.5957 108.187 18.3708 107.853 18.0661C107.534 17.747 107.28 17.348 107.091 16.8692C106.917 16.3759 106.83 15.7956 106.83 15.1282V9.31747C106.496 9.27394 106.235 9.13611 106.047 8.90397C105.872 8.67183 105.785 8.39617 105.785 8.07698C105.785 7.72877 105.872 7.44586 106.047 7.22823C106.235 6.99609 106.496 6.86551 106.83 6.8365V3.15857C106.83 2.76684 106.946 2.46216 107.178 2.24453C107.425 2.01239 107.722 1.89632 108.07 1.89632C108.462 1.89632 108.767 2.01239 108.985 2.24453C109.217 2.46216 109.333 2.76684 109.333 3.15857V6.81473ZM115.706 17.6962C115.706 18.0879 115.59 18.3998 115.358 18.632C115.14 18.8496 114.835 18.9584 114.444 18.9584C114.096 18.9584 113.798 18.8496 113.551 18.632C113.319 18.3998 113.203 18.0879 113.203 17.6962V3.13681C113.203 2.75958 113.319 2.46216 113.551 2.24453C113.798 2.01239 114.096 1.89632 114.444 1.89632C114.835 1.89632 115.14 2.01239 115.358 2.24453C115.59 2.46216 115.706 2.75958 115.706 3.13681V17.6962ZM130.045 17.6962C130.045 18.0879 129.929 18.3998 129.697 18.632C129.48 18.8496 129.175 18.9584 128.783 18.9584C128.435 18.9584 128.137 18.8496 127.891 18.632C127.659 18.3998 127.543 18.0879 127.543 17.6962V17.6309C127.34 17.834 127.1 18.0371 126.824 18.2402C126.563 18.4289 126.266 18.5957 125.932 18.7408C125.613 18.8859 125.272 19.0019 124.909 19.089C124.547 19.1761 124.184 19.2196 123.821 19.2196C122.893 19.2196 122.037 19.0527 121.253 18.719C120.47 18.3853 119.795 17.9356 119.229 17.3697C118.663 16.7894 118.221 16.1147 117.902 15.3458C117.582 14.5623 117.423 13.7281 117.423 12.8431C117.423 11.958 117.582 11.131 117.902 10.3621C118.221 9.57862 118.663 8.89672 119.229 8.31637C119.81 7.73603 120.491 7.27901 121.275 6.94531C122.058 6.5971 122.907 6.423 123.821 6.423C124.634 6.423 125.352 6.56083 125.976 6.8365C126.6 7.11216 127.122 7.48213 127.543 7.9464C127.543 7.56918 127.659 7.27175 127.891 7.05412C128.137 6.82199 128.435 6.70592 128.783 6.70592C129.175 6.70592 129.48 6.82199 129.697 7.05412C129.929 7.27175 130.045 7.56918 130.045 7.9464V17.6962ZM123.821 8.92573C123.27 8.92573 122.755 9.02729 122.276 9.23041C121.812 9.43353 121.405 9.71645 121.057 10.0792C120.709 10.4274 120.433 10.8409 120.23 11.3197C120.027 11.7984 119.926 12.3062 119.926 12.8431C119.926 13.3799 120.027 13.8877 120.23 14.3665C120.433 14.8307 120.709 15.237 121.057 15.5852C121.405 15.9334 121.812 16.209 122.276 16.4122C122.755 16.6153 123.27 16.7168 123.821 16.7168C124.343 16.7168 124.83 16.6153 125.279 16.4122C125.744 16.209 126.135 15.9334 126.454 15.5852C126.788 15.237 127.049 14.8307 127.238 14.3665C127.427 13.8877 127.521 13.3799 127.521 12.8431C127.521 12.3062 127.427 11.7984 127.238 11.3197C127.049 10.8409 126.788 10.4274 126.454 10.0792C126.135 9.71645 125.744 9.43353 125.279 9.23041C124.83 9.02729 124.343 8.92573 123.821 8.92573ZM134.664 7.98993C135.056 7.51115 135.564 7.13392 136.187 6.85826C136.811 6.56809 137.537 6.423 138.364 6.423C139.191 6.423 139.989 6.5826 140.758 6.90179C141.541 7.22097 142.23 7.67074 142.825 8.25108C143.42 8.81692 143.891 9.49157 144.24 10.275C144.602 11.0585 144.784 11.9145 144.784 12.8431C144.784 13.7571 144.602 14.6058 144.24 15.3893C143.891 16.1728 143.42 16.8474 142.825 17.4133C142.23 17.9791 141.541 18.4216 140.758 18.7408C139.989 19.06 139.191 19.2196 138.364 19.2196C137.972 19.2196 137.588 19.1688 137.21 19.0672C136.848 18.9802 136.499 18.8641 136.166 18.719C135.846 18.5594 135.549 18.3781 135.273 18.175C134.998 17.9718 134.766 17.7615 134.577 17.5438C134.533 17.9646 134.417 18.3055 134.229 18.5667C134.055 18.8278 133.714 18.9584 133.206 18.9584C132.901 18.9584 132.647 18.8569 132.444 18.6537C132.241 18.4506 132.14 18.1822 132.14 17.8485V3.13681C132.14 2.75958 132.256 2.46216 132.488 2.24453C132.734 2.01239 133.039 1.89632 133.402 1.89632C133.794 1.89632 134.098 2.01239 134.316 2.24453C134.548 2.46216 134.664 2.75958 134.664 3.13681V7.98993ZM138.364 8.92573C137.841 8.92573 137.355 9.02729 136.906 9.23041C136.456 9.43353 136.064 9.71645 135.73 10.0792C135.397 10.4274 135.136 10.8409 134.947 11.3197C134.758 11.7984 134.664 12.3062 134.664 12.8431C134.664 13.3799 134.758 13.8877 134.947 14.3665C135.136 14.8307 135.397 15.237 135.73 15.5852C136.064 15.9334 136.456 16.209 136.906 16.4122C137.355 16.6153 137.841 16.7168 138.364 16.7168C138.901 16.7168 139.408 16.6153 139.887 16.4122C140.366 16.209 140.779 15.9334 141.128 15.5852C141.476 15.237 141.751 14.8307 141.955 14.3665C142.158 13.8877 142.259 13.3799 142.259 12.8431C142.259 12.3062 142.158 11.7984 141.955 11.3197C141.751 10.8409 141.476 10.4274 141.128 10.0792C140.779 9.71645 140.366 9.43353 139.887 9.23041C139.408 9.02729 138.901 8.92573 138.364 8.92573ZM149.816 11.2979C150.367 11.5155 150.832 11.7331 151.209 11.9508C151.6 12.1684 151.927 12.4005 152.188 12.6472C152.522 12.9809 152.761 13.3654 152.906 13.8006C153.051 14.2214 153.124 14.7437 153.124 15.3675C153.124 15.8318 153.037 16.2816 152.863 16.7168C152.689 17.1521 152.435 17.5438 152.101 17.892C151.782 18.2257 151.39 18.5014 150.926 18.719C150.476 18.9222 149.961 19.0237 149.381 19.0237C148.873 19.0237 148.372 18.9439 147.879 18.7843C147.4 18.6102 146.994 18.3926 146.66 18.1314C146.457 17.9718 146.283 17.7905 146.138 17.5874C146.007 17.3842 145.942 17.1521 145.942 16.8909C145.942 16.6008 146.044 16.3324 146.247 16.0857C146.464 15.8246 146.726 15.694 147.03 15.694C147.291 15.694 147.567 15.781 147.857 15.9551C148.075 16.0857 148.307 16.1945 148.554 16.2816C148.8 16.3686 149.076 16.4122 149.381 16.4122C149.816 16.4122 150.135 16.3034 150.338 16.0857C150.541 15.8536 150.643 15.5707 150.643 15.237C150.643 14.9178 150.585 14.6784 150.469 14.5188C150.367 14.3447 150.237 14.1996 150.077 14.0835C149.743 13.8369 149.373 13.6483 148.967 13.5177C148.575 13.3871 148.191 13.213 147.814 12.9954C147.306 12.7052 146.907 12.3353 146.617 11.8855C146.327 11.4357 146.182 10.8554 146.182 10.1445C146.182 9.62215 146.269 9.15062 146.443 8.72987C146.617 8.29461 146.856 7.92464 147.161 7.61996C147.48 7.31528 147.85 7.08314 148.271 6.92355C148.692 6.74945 149.156 6.66239 149.664 6.66239C150.171 6.66239 150.672 6.7567 151.165 6.94531C151.659 7.13392 152.036 7.41684 152.297 7.79406C152.471 8.04071 152.558 8.35264 152.558 8.72987C152.558 9.03455 152.464 9.30296 152.275 9.53509C152.101 9.75272 151.825 9.86154 151.448 9.86154C151.303 9.86154 151.143 9.83252 150.969 9.77449C150.81 9.70194 150.686 9.60764 150.599 9.49157C150.353 9.17238 149.997 9.01279 149.533 9.01279C149.301 9.01279 149.09 9.09984 148.902 9.27394C148.728 9.44804 148.641 9.70194 148.641 10.0356C148.641 10.3403 148.706 10.5797 148.837 10.7538C148.982 10.9134 149.308 11.0948 149.816 11.2979Z" fill="#929292"/>
<path d="M44.5643 32.0182L45.7655 28.2312C45.7988 28.12 45.8544 28.0366 45.9323 27.981C46.0157 27.9198 46.1102 27.8892 46.2159 27.8892C46.3104 27.8892 46.4022 27.9143 46.4912 27.9643C46.5801 28.0144 46.6441 28.1006 46.683 28.2229L47.8675 32.0182L49.0603 28.2229C49.0992 28.1061 49.1604 28.0227 49.2438 27.9727C49.3328 27.917 49.4245 27.8892 49.5191 27.8892C49.647 27.8892 49.761 27.9282 49.8611 28.006C49.9611 28.0839 50.0112 28.1979 50.0112 28.348C50.0112 28.3758 50.0084 28.4036 50.0029 28.4314C49.9973 28.4592 49.989 28.487 49.9778 28.5148L48.3346 33.7115C48.3012 33.8227 48.2373 33.9061 48.1427 33.9617C48.0538 34.0173 47.9592 34.0451 47.8591 34.0451C47.759 34.0451 47.6645 34.0173 47.5755 33.9617C47.4921 33.9061 47.4337 33.8227 47.4004 33.7115L46.2159 29.9245L45.0314 33.7115C44.9981 33.8171 44.9369 33.9005 44.8479 33.9617C44.7645 34.0173 44.6672 34.0451 44.556 34.0451C44.4615 34.0451 44.3697 34.0201 44.2807 33.9701C44.1973 33.9144 44.1361 33.8283 44.0972 33.7115L42.4623 28.4898C42.4456 28.4509 42.4373 28.4036 42.4373 28.348C42.4373 28.2034 42.4901 28.0922 42.5958 28.0144C42.7014 27.931 42.8099 27.8892 42.9211 27.8892C43.0101 27.8892 43.0963 27.9143 43.1797 27.9643C43.2686 28.0144 43.3326 28.1006 43.3715 28.2229L44.5643 32.0182ZM54.9126 29.2405C55.2463 29.2405 55.5605 29.3045 55.8552 29.4324C56.1555 29.5603 56.4168 29.7327 56.6393 29.9495C56.8617 30.1609 57.0369 30.4111 57.1648 30.7003C57.2982 30.9839 57.365 31.2842 57.365 31.6011C57.365 31.7624 57.3233 31.8847 57.2398 31.9681C57.1564 32.0516 57.0397 32.0933 56.8895 32.0933H53.5029C53.5307 32.249 53.5891 32.3935 53.6781 32.527C53.7671 32.6605 53.8755 32.7772 54.0034 32.8773C54.1369 32.9719 54.2815 33.0469 54.4372 33.1026C54.5929 33.1582 54.7514 33.186 54.9126 33.186C55.1184 33.186 55.3074 33.1498 55.4798 33.0775C55.6522 33.0052 55.8051 32.9024 55.9386 32.7689C55.9942 32.7189 56.0554 32.6799 56.1221 32.6521C56.1888 32.6188 56.2528 32.6021 56.314 32.6021C56.4419 32.6021 56.5475 32.6493 56.6309 32.7439C56.7199 32.8384 56.7644 32.9496 56.7644 33.0775C56.7644 33.1443 56.756 33.2082 56.7394 33.2694C56.7227 33.3306 56.6893 33.3862 56.6393 33.4362C56.4224 33.6753 56.1666 33.8533 55.8719 33.9701C55.5771 34.0868 55.2574 34.1452 54.9126 34.1452C54.5734 34.1452 54.2537 34.0813 53.9534 33.9534C53.6586 33.8255 53.4001 33.6531 53.1776 33.4362C52.9552 33.2138 52.78 32.9552 52.6521 32.6605C52.5242 32.3602 52.4603 32.0404 52.4603 31.7012C52.4603 31.362 52.5242 31.045 52.6521 30.7503C52.78 30.45 52.9552 30.1887 53.1776 29.9662C53.4001 29.7438 53.6586 29.5686 53.9534 29.4407C54.2537 29.3073 54.5734 29.2405 54.9126 29.2405ZM54.9126 30.1998C54.7514 30.1998 54.5929 30.2276 54.4372 30.2832C54.2815 30.3388 54.1397 30.4167 54.0118 30.5168C53.8894 30.6169 53.7838 30.7336 53.6948 30.8671C53.6058 31.0005 53.5446 31.1451 53.5113 31.3008H56.314C56.2862 31.1451 56.2278 31.0005 56.1388 30.8671C56.0498 30.7336 55.9414 30.6169 55.8135 30.5168C55.6856 30.4167 55.5438 30.3388 55.3881 30.2832C55.2324 30.2276 55.0739 30.1998 54.9126 30.1998ZM66.9479 27.931C67.3873 27.931 67.8015 28.006 68.1908 28.1562C68.5801 28.3063 68.9193 28.5148 69.2084 28.7818C69.4976 29.0487 69.7256 29.3684 69.8924 29.741C70.0592 30.1136 70.1427 30.5223 70.1427 30.9672C70.1427 31.4121 70.0592 31.8208 69.8924 32.1934C69.7256 32.5659 69.4976 32.8857 69.2084 33.1526C68.9193 33.4195 68.5801 33.6281 68.1908 33.7782C67.8015 33.9283 67.3873 34.0034 66.9479 34.0034H65.947C65.8135 34.0034 65.6995 33.9617 65.605 33.8783C65.516 33.7893 65.4715 33.6698 65.4715 33.5196V28.4064C65.4715 28.2618 65.516 28.1478 65.605 28.0644C65.6995 27.9754 65.8135 27.931 65.947 27.931H66.9479ZM66.4308 33.0442H66.9479C67.2538 33.0442 67.543 32.9941 67.8154 32.894C68.0879 32.7884 68.3243 32.6438 68.5245 32.4603C68.7302 32.2768 68.8915 32.0599 69.0082 31.8097C69.125 31.5539 69.1834 31.273 69.1834 30.9672C69.1834 30.6669 69.125 30.3889 69.0082 30.1331C68.8915 29.8773 68.7302 29.6576 68.5245 29.4741C68.3243 29.2906 68.0879 29.1488 67.8154 29.0487C67.543 28.943 67.2538 28.8902 66.9479 28.8902H66.4308V33.0442ZM75.8291 29.2405C76.1627 29.2405 76.4769 29.3045 76.7717 29.4324C77.0719 29.5603 77.3333 29.7327 77.5557 29.9495C77.7782 30.1609 77.9533 30.4111 78.0812 30.7003C78.2147 30.9839 78.2814 31.2842 78.2814 31.6011C78.2814 31.7624 78.2397 31.8847 78.1563 31.9681C78.0729 32.0516 77.9561 32.0933 77.806 32.0933H74.4194C74.4472 32.249 74.5056 32.3935 74.5946 32.527C74.6835 32.6605 74.792 32.7772 74.9199 32.8773C75.0533 32.9719 75.1979 33.0469 75.3536 33.1026C75.5093 33.1582 75.6678 33.186 75.8291 33.186C76.0348 33.186 76.2239 33.1498 76.3963 33.0775C76.5687 33.0052 76.7216 32.9024 76.8551 32.7689C76.9107 32.7189 76.9718 32.6799 77.0386 32.6521C77.1053 32.6188 77.1693 32.6021 77.2304 32.6021C77.3583 32.6021 77.464 32.6493 77.5474 32.7439C77.6364 32.8384 77.6809 32.9496 77.6809 33.0775C77.6809 33.1443 77.6725 33.2082 77.6558 33.2694C77.6391 33.3306 77.6058 33.3862 77.5557 33.4362C77.3389 33.6753 77.0831 33.8533 76.7883 33.9701C76.4936 34.0868 76.1739 34.1452 75.8291 34.1452C75.4899 34.1452 75.1701 34.0813 74.8698 33.9534C74.5751 33.8255 74.3165 33.6531 74.0941 33.4362C73.8717 33.2138 73.6965 32.9552 73.5686 32.6605C73.4407 32.3602 73.3767 32.0404 73.3767 31.7012C73.3767 31.362 73.4407 31.045 73.5686 30.7503C73.6965 30.45 73.8717 30.1887 74.0941 29.9662C74.3165 29.7438 74.5751 29.5686 74.8698 29.4407C75.1701 29.3073 75.4899 29.2405 75.8291 29.2405ZM75.8291 30.1998C75.6678 30.1998 75.5093 30.2276 75.3536 30.2832C75.1979 30.3388 75.0561 30.4167 74.9282 30.5168C74.8059 30.6169 74.7002 30.7336 74.6113 30.8671C74.5223 31.0005 74.4611 31.1451 74.4277 31.3008H77.2304C77.2026 31.1451 77.1442 31.0005 77.0553 30.8671C76.9663 30.7336 76.8578 30.6169 76.7299 30.5168C76.602 30.4167 76.4602 30.3388 76.3045 30.2832C76.1488 30.2276 75.9903 30.1998 75.8291 30.1998ZM82.9733 31.109C83.1846 31.1924 83.3625 31.2758 83.5071 31.3592C83.6573 31.4426 83.7824 31.5316 83.8825 31.6261C84.0104 31.754 84.1021 31.9014 84.1577 32.0682C84.2133 32.2295 84.2412 32.4297 84.2412 32.6688C84.2412 32.8468 84.2078 33.0191 84.1411 33.186C84.0743 33.3528 83.977 33.5029 83.8491 33.6364C83.7268 33.7643 83.5766 33.87 83.3987 33.9534C83.2263 34.0312 83.0289 34.0701 82.8064 34.0701C82.6118 34.0701 82.42 34.0396 82.2309 33.9784C82.0474 33.9117 81.8917 33.8283 81.7638 33.7282C81.6859 33.667 81.6192 33.5975 81.5636 33.5196C81.5135 33.4418 81.4885 33.3528 81.4885 33.2527C81.4885 33.1415 81.5274 33.0386 81.6053 32.9441C81.6887 32.844 81.7888 32.7939 81.9056 32.7939C82.0057 32.7939 82.1113 32.8273 82.2226 32.894C82.306 32.9441 82.3949 32.9858 82.4895 33.0191C82.584 33.0525 82.6897 33.0692 82.8064 33.0692C82.9733 33.0692 83.0956 33.0275 83.1735 32.9441C83.2513 32.8551 83.2902 32.7467 83.2902 32.6188C83.2902 32.4964 83.268 32.4047 83.2235 32.3435C83.1846 32.2768 83.1345 32.2212 83.0734 32.1767C82.9455 32.0821 82.8037 32.0098 82.648 31.9598C82.4978 31.9098 82.3505 31.843 82.2059 31.7596C82.0112 31.6484 81.8583 31.5066 81.7471 31.3342C81.6359 31.1618 81.5803 30.9394 81.5803 30.6669C81.5803 30.4667 81.6136 30.286 81.6804 30.1247C81.7471 29.9579 81.8389 29.8161 81.9556 29.6993C82.078 29.5825 82.2198 29.4936 82.381 29.4324C82.5423 29.3657 82.7203 29.3323 82.9149 29.3323C83.1095 29.3323 83.3014 29.3684 83.4904 29.4407C83.6795 29.513 83.8241 29.6215 83.9242 29.766C83.9909 29.8606 84.0243 29.9801 84.0243 30.1247C84.0243 30.2415 83.9881 30.3444 83.9158 30.4333C83.8491 30.5168 83.7435 30.5585 83.5989 30.5585C83.5433 30.5585 83.4821 30.5473 83.4154 30.5251C83.3542 30.4973 83.3069 30.4611 83.2736 30.4167C83.179 30.2943 83.0428 30.2332 82.8648 30.2332C82.7759 30.2332 82.6952 30.2665 82.6229 30.3332C82.5562 30.4 82.5228 30.4973 82.5228 30.6252C82.5228 30.742 82.5479 30.8337 82.5979 30.9005C82.6535 30.9616 82.7786 31.0311 82.9733 31.109ZM88.5284 28.6483C88.5284 28.7929 88.4839 28.9097 88.3949 28.9986C88.3115 29.0821 88.1947 29.1238 88.0446 29.1238C87.9111 29.1238 87.7971 29.0821 87.7026 28.9986C87.6136 28.9097 87.5691 28.7929 87.5691 28.6483V27.981C87.5691 27.8364 87.6136 27.7224 87.7026 27.639C87.7971 27.55 87.9111 27.5055 88.0446 27.5055C88.1947 27.5055 88.3115 27.55 88.3949 27.639C88.4839 27.7224 88.5284 27.8364 88.5284 27.981V28.6483ZM88.5284 33.5613C88.5284 33.7115 88.4839 33.831 88.3949 33.92C88.3115 34.0034 88.1947 34.0451 88.0446 34.0451C87.9111 34.0451 87.7971 34.0034 87.7026 33.92C87.6136 33.831 87.5691 33.7115 87.5691 33.5613V29.9913C87.5691 29.8522 87.6136 29.7382 87.7026 29.6493C87.7971 29.5603 87.9111 29.5158 88.0446 29.5158C88.1947 29.5158 88.3115 29.5603 88.3949 29.6493C88.4839 29.7382 88.5284 29.8522 88.5284 29.9913V33.5613ZM94.3914 29.2405C94.5416 29.2405 94.6861 29.26 94.8252 29.2989C94.9697 29.3323 95.1032 29.3796 95.2255 29.4407C95.3534 29.5019 95.4702 29.5714 95.5759 29.6493C95.6815 29.7271 95.7733 29.8077 95.8511 29.8912C95.8623 29.7076 95.9067 29.5714 95.9846 29.4824C96.0625 29.3935 96.1904 29.349 96.3683 29.349C96.4851 29.349 96.5824 29.3879 96.6602 29.4658C96.7381 29.538 96.777 29.6381 96.777 29.766V33.6948C96.777 34.0006 96.7298 34.2981 96.6352 34.5873C96.5462 34.882 96.4017 35.1434 96.2015 35.3714C96.0013 35.6049 95.7455 35.7912 95.4341 35.9303C95.1282 36.0693 94.7584 36.1388 94.3247 36.1388C94.1523 36.1388 94.0216 36.0943 93.9326 36.0053C93.8492 35.9219 93.8075 35.8051 93.8075 35.655C93.8075 35.5104 93.8492 35.3936 93.9326 35.3047C94.0216 35.2157 94.1412 35.1712 94.2913 35.1712C94.5805 35.1712 94.8224 35.1267 95.017 35.0377C95.2116 34.9543 95.3673 34.8403 95.4841 34.6957C95.6009 34.5512 95.6815 34.3788 95.726 34.1786C95.7761 33.984 95.8011 33.7754 95.8011 33.553C95.6565 33.7421 95.4674 33.8894 95.2339 33.9951C95.0003 34.0952 94.7195 34.1452 94.3914 34.1452C94.0744 34.1452 93.7658 34.0813 93.4655 33.9534C93.1708 33.8255 92.9094 33.6503 92.6814 33.4279C92.459 33.2054 92.2783 32.9469 92.1393 32.6521C92.0058 32.3518 91.9391 32.0321 91.9391 31.6929C91.9391 31.3537 92.0058 31.0367 92.1393 30.742C92.2783 30.4417 92.459 30.1803 92.6814 29.9579C92.9094 29.7355 93.1708 29.5603 93.4655 29.4324C93.7658 29.3045 94.0744 29.2405 94.3914 29.2405ZM94.3914 33.186C94.5916 33.186 94.7779 33.147 94.9503 33.0692C95.1282 32.9913 95.2784 32.8857 95.4007 32.7522C95.5286 32.6132 95.6287 32.4547 95.701 32.2768C95.7733 32.0933 95.8094 31.8986 95.8094 31.6929C95.8094 31.4871 95.7733 31.2953 95.701 31.1173C95.6287 30.9338 95.5286 30.7753 95.4007 30.6419C95.2784 30.5029 95.1282 30.3944 94.9503 30.3166C94.7779 30.2387 94.5916 30.1998 94.3914 30.1998C94.1801 30.1998 93.9827 30.2387 93.7992 30.3166C93.6212 30.3944 93.4655 30.5029 93.3321 30.6419C93.1986 30.7753 93.0929 30.9338 93.0151 31.1173C92.9372 31.2953 92.8983 31.4871 92.8983 31.6929C92.8983 31.8986 92.9372 32.0933 93.0151 32.2768C93.0929 32.4547 93.1986 32.6132 93.3321 32.7522C93.4655 32.8857 93.6212 32.9913 93.7992 33.0692C93.9827 33.147 94.1801 33.186 94.3914 33.186ZM100.741 29.349C101.014 29.349 101.175 29.488 101.225 29.766C101.369 29.6048 101.547 29.4769 101.759 29.3823C101.97 29.2878 102.206 29.2405 102.468 29.2405C102.768 29.2405 103.04 29.2961 103.285 29.4074C103.53 29.513 103.738 29.6604 103.911 29.8495C104.083 30.0385 104.214 30.2637 104.303 30.5251C104.397 30.7809 104.445 31.0589 104.445 31.3592V33.5697C104.445 33.7198 104.4 33.8366 104.311 33.92C104.228 34.0034 104.114 34.0451 103.969 34.0451C103.83 34.0451 103.716 34.0034 103.627 33.92C103.538 33.8366 103.494 33.7198 103.494 33.5697V31.3592C103.494 31.198 103.469 31.0478 103.419 30.9088C103.369 30.7642 103.296 30.6391 103.202 30.5334C103.113 30.4278 103.002 30.3444 102.868 30.2832C102.735 30.222 102.584 30.1914 102.418 30.1914C102.251 30.1914 102.098 30.222 101.959 30.2832C101.82 30.3444 101.7 30.4278 101.6 30.5334C101.5 30.6335 101.422 30.7559 101.367 30.9005C101.317 31.0395 101.292 31.1924 101.292 31.3592V33.5697C101.292 33.7198 101.247 33.8366 101.158 33.92C101.075 34.0034 100.958 34.0451 100.808 34.0451C100.674 34.0451 100.56 34.0034 100.466 33.92C100.377 33.8366 100.332 33.7198 100.332 33.5697V29.766C100.332 29.6381 100.371 29.538 100.449 29.4658C100.532 29.3879 100.63 29.349 100.741 29.349ZM115.582 27.931C115.721 27.931 115.832 27.9754 115.915 28.0644C116.004 28.1478 116.049 28.2618 116.049 28.4064C116.049 28.551 116.004 28.6678 115.915 28.7567C115.832 28.8457 115.721 28.8902 115.582 28.8902H113.68V30.2915H115.507C115.651 30.2915 115.768 30.336 115.857 30.425C115.946 30.514 115.991 30.628 115.991 30.767C115.991 30.9171 115.946 31.0339 115.857 31.1173C115.768 31.2007 115.651 31.2424 115.507 31.2424H113.68V33.0442H115.615C115.76 33.0442 115.874 33.0887 115.957 33.1776C116.046 33.261 116.091 33.375 116.091 33.5196C116.091 33.6698 116.046 33.7893 115.957 33.8783C115.874 33.9617 115.76 34.0034 115.615 34.0034H113.196C113.063 34.0034 112.949 33.9617 112.854 33.8783C112.765 33.7893 112.721 33.6698 112.721 33.5196V28.4064C112.721 28.2618 112.765 28.1478 112.854 28.0644C112.949 27.9754 113.063 27.931 113.196 27.931H115.582ZM121.961 29.349C122.089 29.349 122.197 29.3962 122.286 29.4908C122.381 29.5797 122.428 29.691 122.428 29.8244C122.428 29.8745 122.42 29.9273 122.403 29.9829C122.392 30.0385 122.367 30.0941 122.328 30.1497L121.369 31.5761L122.486 33.2527C122.525 33.3083 122.55 33.3611 122.561 33.4112C122.578 33.4612 122.586 33.5168 122.586 33.578C122.586 33.7115 122.539 33.8227 122.445 33.9117C122.356 34.0006 122.247 34.0451 122.119 34.0451C122.014 34.0451 121.93 34.0257 121.869 33.9867C121.808 33.9478 121.747 33.8811 121.686 33.7865L120.81 32.3769L119.951 33.7865C119.889 33.8811 119.82 33.9478 119.742 33.9867C119.67 34.0257 119.592 34.0451 119.508 34.0451C119.386 34.0451 119.278 34.0006 119.183 33.9117C119.089 33.8227 119.041 33.7115 119.041 33.578C119.041 33.4779 119.072 33.3778 119.133 33.2777L120.276 31.5678L119.308 30.1497C119.269 30.0941 119.242 30.0385 119.225 29.9829C119.214 29.9273 119.208 29.8745 119.208 29.8244C119.208 29.691 119.253 29.5797 119.342 29.4908C119.436 29.3962 119.547 29.349 119.675 29.349C119.742 29.349 119.812 29.3684 119.884 29.4074C119.962 29.4407 120.028 29.4991 120.084 29.5825L120.818 30.767L121.552 29.5909C121.608 29.5075 121.672 29.4463 121.744 29.4074C121.816 29.3684 121.889 29.349 121.961 29.349ZM128.204 33.186C128.409 33.186 128.604 33.147 128.787 33.0692C128.971 32.9913 129.129 32.8857 129.263 32.7522C129.396 32.6132 129.502 32.4547 129.58 32.2768C129.658 32.0933 129.697 31.8986 129.697 31.6929C129.697 31.4871 129.658 31.2953 129.58 31.1173C129.502 30.9338 129.396 30.7753 129.263 30.6419C129.129 30.5029 128.971 30.3944 128.787 30.3166C128.604 30.2387 128.409 30.1998 128.204 30.1998C128.003 30.1998 127.817 30.2387 127.645 30.3166C127.472 30.3944 127.322 30.5029 127.194 30.6419C127.066 30.7753 126.966 30.9338 126.894 31.1173C126.822 31.2953 126.785 31.4871 126.785 31.6929C126.785 31.8986 126.822 32.0933 126.894 32.2768C126.966 32.4547 127.066 32.6132 127.194 32.7522C127.322 32.8857 127.472 32.9913 127.645 33.0692C127.817 33.147 128.003 33.186 128.204 33.186ZM126.785 35.6633C126.785 35.8079 126.741 35.9219 126.652 36.0053C126.569 36.0943 126.452 36.1388 126.302 36.1388C126.163 36.1388 126.046 36.0943 125.951 36.0053C125.862 35.9219 125.818 35.8079 125.818 35.6633V29.766C125.818 29.6381 125.857 29.538 125.935 29.4658C126.018 29.3879 126.115 29.349 126.227 29.349C126.399 29.349 126.519 29.3962 126.585 29.4908C126.658 29.5797 126.713 29.7132 126.752 29.8912C126.824 29.8077 126.913 29.7271 127.019 29.6493C127.125 29.5714 127.239 29.5019 127.361 29.4407C127.489 29.3796 127.622 29.3323 127.761 29.2989C127.906 29.26 128.053 29.2405 128.204 29.2405C128.52 29.2405 128.826 29.3045 129.121 29.4324C129.421 29.5603 129.685 29.7355 129.913 29.9579C130.141 30.1803 130.322 30.4417 130.456 30.742C130.595 31.0367 130.664 31.3537 130.664 31.6929C130.664 32.0321 130.595 32.3518 130.456 32.6521C130.322 32.9469 130.141 33.2054 129.913 33.4279C129.685 33.6503 129.421 33.8255 129.121 33.9534C128.826 34.0813 128.52 34.1452 128.204 34.1452C127.887 34.1452 127.609 34.0924 127.369 33.9867C127.13 33.8755 126.936 33.7309 126.785 33.553V35.6633ZM136.347 29.2405C136.68 29.2405 136.994 29.3045 137.289 29.4324C137.589 29.5603 137.851 29.7327 138.073 29.9495C138.296 30.1609 138.471 30.4111 138.599 30.7003C138.732 30.9839 138.799 31.2842 138.799 31.6011C138.799 31.7624 138.757 31.8847 138.674 31.9681C138.59 32.0516 138.474 32.0933 138.323 32.0933H134.937C134.965 32.249 135.023 32.3935 135.112 32.527C135.201 32.6605 135.309 32.7772 135.437 32.8773C135.571 32.9719 135.715 33.0469 135.871 33.1026C136.027 33.1582 136.185 33.186 136.347 33.186C136.552 33.186 136.741 33.1498 136.914 33.0775C137.086 33.0052 137.239 32.9024 137.372 32.7689C137.428 32.7189 137.489 32.6799 137.556 32.6521C137.623 32.6188 137.687 32.6021 137.748 32.6021C137.876 32.6021 137.981 32.6493 138.065 32.7439C138.154 32.8384 138.198 32.9496 138.198 33.0775C138.198 33.1443 138.19 33.2082 138.173 33.2694C138.157 33.3306 138.123 33.3862 138.073 33.4362C137.856 33.6753 137.6 33.8533 137.306 33.9701C137.011 34.0868 136.691 34.1452 136.347 34.1452C136.007 34.1452 135.688 34.0813 135.387 33.9534C135.093 33.8255 134.834 33.6531 134.612 33.4362C134.389 33.2138 134.214 32.9552 134.086 32.6605C133.958 32.3602 133.894 32.0404 133.894 31.7012C133.894 31.362 133.958 31.045 134.086 30.7503C134.214 30.45 134.389 30.1887 134.612 29.9662C134.834 29.7438 135.093 29.5686 135.387 29.4407C135.688 29.3073 136.007 29.2405 136.347 29.2405ZM136.347 30.1998C136.185 30.1998 136.027 30.2276 135.871 30.2832C135.715 30.3388 135.574 30.4167 135.446 30.5168C135.323 30.6169 135.218 30.7336 135.129 30.8671C135.04 31.0005 134.979 31.1451 134.945 31.3008H137.748C137.72 31.1451 137.662 31.0005 137.573 30.8671C137.484 30.7336 137.375 30.6169 137.247 30.5168C137.119 30.4167 136.978 30.3388 136.822 30.2832C136.666 30.2276 136.508 30.1998 136.347 30.1998ZM142.673 29.349C142.812 29.349 142.915 29.3935 142.982 29.4824C143.049 29.5658 143.088 29.6826 143.099 29.8328C143.26 29.6548 143.435 29.5269 143.624 29.4491C143.813 29.3712 144.033 29.3323 144.283 29.3323C144.422 29.3323 144.536 29.3712 144.625 29.4491C144.72 29.5214 144.767 29.6409 144.767 29.8077C144.767 29.9412 144.734 30.0496 144.667 30.1331C144.6 30.2109 144.494 30.2554 144.35 30.2665C144.111 30.2832 143.913 30.3193 143.758 30.375C143.602 30.4306 143.48 30.5084 143.391 30.6085C143.302 30.703 143.24 30.8198 143.207 30.9588C143.174 31.0923 143.157 31.2424 143.157 31.4093V33.603C143.157 33.7254 143.113 33.831 143.024 33.92C142.94 34.0034 142.826 34.0451 142.682 34.0451C142.537 34.0451 142.42 34.0034 142.331 33.92C142.242 33.831 142.198 33.7226 142.198 33.5947V29.8745C142.198 29.7299 142.231 29.6076 142.298 29.5075C142.37 29.4018 142.495 29.349 142.673 29.349ZM148.924 28.6483C148.924 28.7929 148.879 28.9097 148.79 28.9986C148.707 29.0821 148.59 29.1238 148.44 29.1238C148.306 29.1238 148.192 29.0821 148.098 28.9986C148.009 28.9097 147.964 28.7929 147.964 28.6483V27.981C147.964 27.8364 148.009 27.7224 148.098 27.639C148.192 27.55 148.306 27.5055 148.44 27.5055C148.59 27.5055 148.707 27.55 148.79 27.639C148.879 27.7224 148.924 27.8364 148.924 27.981V28.6483ZM148.924 33.5613C148.924 33.7115 148.879 33.831 148.79 33.92C148.707 34.0034 148.59 34.0451 148.44 34.0451C148.306 34.0451 148.192 34.0034 148.098 33.92C148.009 33.831 147.964 33.7115 147.964 33.5613V29.9913C147.964 29.8522 148.009 29.7382 148.098 29.6493C148.192 29.5603 148.306 29.5158 148.44 29.5158C148.59 29.5158 148.707 29.5603 148.79 29.6493C148.879 29.7382 148.924 29.8522 148.924 29.9913V33.5613ZM154.787 29.2405C155.12 29.2405 155.434 29.3045 155.729 29.4324C156.03 29.5603 156.291 29.7327 156.513 29.9495C156.736 30.1609 156.911 30.4111 157.039 30.7003C157.172 30.9839 157.239 31.2842 157.239 31.6011C157.239 31.7624 157.197 31.8847 157.114 31.9681C157.03 32.0516 156.914 32.0933 156.764 32.0933H153.377C153.405 32.249 153.463 32.3935 153.552 32.527C153.641 32.6605 153.75 32.7772 153.877 32.8773C154.011 32.9719 154.155 33.0469 154.311 33.1026C154.467 33.1582 154.625 33.186 154.787 33.186C154.992 33.186 155.181 33.1498 155.354 33.0775C155.526 33.0052 155.679 32.9024 155.813 32.7689C155.868 32.7189 155.929 32.6799 155.996 32.6521C156.063 32.6188 156.127 32.6021 156.188 32.6021C156.316 32.6021 156.422 32.6493 156.505 32.7439C156.594 32.8384 156.638 32.9496 156.638 33.0775C156.638 33.1443 156.63 33.2082 156.613 33.2694C156.597 33.3306 156.563 33.3862 156.513 33.4362C156.296 33.6753 156.041 33.8533 155.746 33.9701C155.451 34.0868 155.131 34.1452 154.787 34.1452C154.447 34.1452 154.128 34.0813 153.827 33.9534C153.533 33.8255 153.274 33.6531 153.052 33.4362C152.829 33.2138 152.654 32.9552 152.526 32.6605C152.398 32.3602 152.334 32.0404 152.334 31.7012C152.334 31.362 152.398 31.045 152.526 30.7503C152.654 30.45 152.829 30.1887 153.052 29.9662C153.274 29.7438 153.533 29.5686 153.827 29.4407C154.128 29.3073 154.447 29.2405 154.787 29.2405ZM154.787 30.1998C154.625 30.1998 154.467 30.2276 154.311 30.2832C154.155 30.3388 154.014 30.4167 153.886 30.5168C153.763 30.6169 153.658 30.7336 153.569 30.8671C153.48 31.0005 153.419 31.1451 153.385 31.3008H156.188C156.16 31.1451 156.102 31.0005 156.013 30.8671C155.924 30.7336 155.815 30.6169 155.688 30.5168C155.56 30.4167 155.418 30.3388 155.262 30.2832C155.106 30.2276 154.948 30.1998 154.787 30.1998ZM161.047 29.349C161.319 29.349 161.48 29.488 161.53 29.766C161.675 29.6048 161.853 29.4769 162.064 29.3823C162.276 29.2878 162.512 29.2405 162.773 29.2405C163.074 29.2405 163.346 29.2961 163.591 29.4074C163.835 29.513 164.044 29.6604 164.216 29.8495C164.389 30.0385 164.519 30.2637 164.608 30.5251C164.703 30.7809 164.75 31.0589 164.75 31.3592V33.5697C164.75 33.7198 164.706 33.8366 164.617 33.92C164.533 34.0034 164.419 34.0451 164.275 34.0451C164.136 34.0451 164.022 34.0034 163.933 33.92C163.844 33.8366 163.799 33.7198 163.799 33.5697V31.3592C163.799 31.198 163.774 31.0478 163.724 30.9088C163.674 30.7642 163.602 30.6391 163.507 30.5334C163.418 30.4278 163.307 30.3444 163.174 30.2832C163.04 30.222 162.89 30.1914 162.723 30.1914C162.556 30.1914 162.404 30.222 162.265 30.2832C162.125 30.3444 162.006 30.4278 161.906 30.5334C161.806 30.6335 161.728 30.7559 161.672 30.9005C161.622 31.0395 161.597 31.1924 161.597 31.3592V33.5697C161.597 33.7198 161.553 33.8366 161.464 33.92C161.38 34.0034 161.264 34.0451 161.113 34.0451C160.98 34.0451 160.866 34.0034 160.771 33.92C160.682 33.8366 160.638 33.7198 160.638 33.5697V29.766C160.638 29.6381 160.677 29.538 160.755 29.4658C160.838 29.3879 160.935 29.349 161.047 29.349ZM170.613 29.2405C170.963 29.2405 171.294 29.3073 171.605 29.4407C171.922 29.5686 172.184 29.7577 172.389 30.0079C172.428 30.058 172.456 30.1108 172.473 30.1664C172.489 30.222 172.498 30.2721 172.498 30.3166C172.498 30.45 172.448 30.5668 172.348 30.6669C172.248 30.767 172.134 30.817 172.006 30.817C171.889 30.817 171.783 30.7698 171.689 30.6752C171.544 30.5307 171.38 30.4167 171.197 30.3332C171.013 30.2443 170.818 30.1998 170.613 30.1998C170.401 30.1998 170.204 30.2387 170.02 30.3166C169.842 30.3944 169.687 30.5029 169.553 30.6419C169.42 30.7753 169.314 30.9338 169.236 31.1173C169.158 31.3008 169.12 31.4955 169.12 31.7012C169.12 31.907 169.158 32.1016 169.236 32.2851C169.314 32.4631 169.42 32.6188 169.553 32.7522C169.687 32.8857 169.842 32.9913 170.02 33.0692C170.204 33.147 170.401 33.186 170.613 33.186C170.818 33.186 171.013 33.1498 171.197 33.0775C171.38 32.9997 171.539 32.8885 171.672 32.7439C171.728 32.6883 171.78 32.6521 171.83 32.6354C171.886 32.6132 171.944 32.6021 172.006 32.6021C172.134 32.6021 172.25 32.6493 172.356 32.7439C172.462 32.8384 172.514 32.9524 172.514 33.0859C172.514 33.1971 172.464 33.3083 172.364 33.4195C172.136 33.6531 171.869 33.8338 171.564 33.9617C171.263 34.0841 170.946 34.1452 170.613 34.1452C170.273 34.1452 169.954 34.0813 169.653 33.9534C169.359 33.8255 169.1 33.6531 168.878 33.4362C168.655 33.2138 168.48 32.9552 168.352 32.6605C168.224 32.3602 168.16 32.0404 168.16 31.7012C168.16 31.362 168.224 31.045 168.352 30.7503C168.48 30.45 168.655 30.1887 168.878 29.9662C169.1 29.7438 169.359 29.5686 169.653 29.4407C169.954 29.3073 170.273 29.2405 170.613 29.2405ZM178.212 29.2405C178.546 29.2405 178.86 29.3045 179.155 29.4324C179.455 29.5603 179.716 29.7327 179.939 29.9495C180.161 30.1609 180.336 30.4111 180.464 30.7003C180.598 30.9839 180.664 31.2842 180.664 31.6011C180.664 31.7624 180.623 31.8847 180.539 31.9681C180.456 32.0516 180.339 32.0933 180.189 32.0933H176.802C176.83 32.249 176.889 32.3935 176.978 32.527C177.066 32.6605 177.175 32.7772 177.303 32.8773C177.436 32.9719 177.581 33.0469 177.737 33.1026C177.892 33.1582 178.051 33.186 178.212 33.186C178.418 33.186 178.607 33.1498 178.779 33.0775C178.952 33.0052 179.105 32.9024 179.238 32.7689C179.294 32.7189 179.355 32.6799 179.422 32.6521C179.488 32.6188 179.552 32.6021 179.613 32.6021C179.741 32.6021 179.847 32.6493 179.93 32.7439C180.019 32.8384 180.064 32.9496 180.064 33.0775C180.064 33.1443 180.055 33.2082 180.039 33.2694C180.022 33.3306 179.989 33.3862 179.939 33.4362C179.722 33.6753 179.466 33.8533 179.171 33.9701C178.877 34.0868 178.557 34.1452 178.212 34.1452C177.873 34.1452 177.553 34.0813 177.253 33.9534C176.958 33.8255 176.699 33.6531 176.477 33.4362C176.255 33.2138 176.079 32.9552 175.952 32.6605C175.824 32.3602 175.76 32.0404 175.76 31.7012C175.76 31.362 175.824 31.045 175.952 30.7503C176.079 30.45 176.255 30.1887 176.477 29.9662C176.699 29.7438 176.958 29.5686 177.253 29.4407C177.553 29.3073 177.873 29.2405 178.212 29.2405ZM178.212 30.1998C178.051 30.1998 177.892 30.2276 177.737 30.2832C177.581 30.3388 177.439 30.4167 177.311 30.5168C177.189 30.6169 177.083 30.7336 176.994 30.8671C176.905 31.0005 176.844 31.1451 176.811 31.3008H179.613C179.586 31.1451 179.527 31.0005 179.438 30.8671C179.349 30.7336 179.241 30.6169 179.113 30.5168C178.985 30.4167 178.843 30.3388 178.687 30.2832C178.532 30.2276 178.373 30.1998 178.212 30.1998ZM189.73 31.6261C189.73 31.7652 189.686 31.8792 189.597 31.9681C189.513 32.0571 189.397 32.1016 189.246 32.1016C189.113 32.1016 188.999 32.0571 188.904 31.9681C188.815 31.8792 188.771 31.7652 188.771 31.6261V28.3647C188.771 28.2201 188.815 28.1061 188.904 28.0227C188.999 27.9337 189.113 27.8892 189.246 27.8892C189.397 27.8892 189.513 27.9337 189.597 28.0227C189.686 28.1061 189.73 28.2201 189.73 28.3647V31.6261ZM189.73 33.5613C189.73 33.7115 189.686 33.831 189.597 33.92C189.513 34.0034 189.397 34.0451 189.246 34.0451C189.113 34.0451 188.999 34.0034 188.904 33.92C188.815 33.831 188.771 33.7115 188.771 33.5613V33.0525C188.771 32.9135 188.815 32.7995 188.904 32.7105C188.999 32.6215 189.113 32.5771 189.246 32.5771C189.397 32.5771 189.513 32.6215 189.597 32.7105C189.686 32.7995 189.73 32.9135 189.73 33.0525V33.5613Z" fill="#929292"/>
</svg>
